<svg width="65" height="53" viewBox="0 0 65 53" fill="none" xmlns="http://www.w3.org/2000/svg">
<path d="M62.215 0.680176H10.6916C9.21979 0.680176 8.02665 2.13705 8.02665 3.93424V5.01893H3.58498C2.11313 5.01893 0.919983 6.4758 0.919983 8.27299V45.1524C0.919983 49.3458 3.70402 52.7452 7.13832 52.7452H59.55C62.4937 52.7452 64.88 49.8314 64.88 46.237V3.93424C64.88 2.13705 63.6868 0.680176 62.215 0.680176ZM7.13832 46.237C6.90272 46.237 6.67676 46.1228 6.51017 45.9194C6.34357 45.7159 6.24998 45.44 6.24998 45.1524V11.5271H8.02665V45.1524C8.02665 45.44 7.93306 45.7159 7.76646 45.9194C7.59987 46.1228 7.37392 46.237 7.13832 46.237ZM33.3441 44.0677H16.4658C15.7299 44.0677 15.1333 43.3392 15.1333 42.4406V41.356C15.1333 40.4574 15.7299 39.7289 16.4658 39.7289H33.3441C34.08 39.7289 34.6766 40.4574 34.6766 41.356V42.4406C34.6766 43.3392 34.08 44.0677 33.3441 44.0677ZM56.4408 44.0677H39.5625C38.8266 44.0677 38.23 43.3392 38.23 42.4406V41.356C38.23 40.4574 38.8266 39.7289 39.5625 39.7289H56.4408C57.1767 39.7289 57.7733 40.4574 57.7733 41.356V42.4406C57.7733 43.3392 57.1767 44.0677 56.4408 44.0677ZM33.3441 31.0514H16.4658C15.7299 31.0514 15.1333 30.3229 15.1333 29.4244V28.3397C15.1333 27.4412 15.7299 26.7127 16.4658 26.7127H33.3441C34.08 26.7127 34.6766 27.4412 34.6766 28.3397V29.4244C34.6766 30.3229 34.08 31.0514 33.3441 31.0514ZM56.4408 31.0514H39.5625C38.8266 31.0514 38.23 30.3229 38.23 29.4244V28.3397C38.23 27.4412 38.8266 26.7127 39.5625 26.7127H56.4408C57.1767 26.7127 57.7733 27.4412 57.7733 28.3397V29.4244C57.7733 30.3229 57.1767 31.0514 56.4408 31.0514ZM56.4408 18.0352H16.4658C15.7299 18.0352 15.1333 17.3067 15.1333 16.4081V10.9847C15.1333 10.0862 15.7299 9.35768 16.4658 9.35768H56.4408C57.1767 9.35768 57.7733 10.0862 57.7733 10.9847V16.4081C57.7733 17.3067 57.1767 18.0352 56.4408 18.0352Z" fill="black"/>
</svg>
