<svg width="60" height="49" viewBox="0 0 60 49" fill="none" xmlns="http://www.w3.org/2000/svg">
<path d="M57.5 0H9.16667C7.78594 0 6.66667 1.37111 6.66667 3.0625V4.08333H2.5C1.11927 4.08333 0 5.45444 0 7.14583V41.8542C0 45.8007 2.61167 49 5.83333 49H55C57.7615 49 60 46.2578 60 42.875V3.0625C60 1.37111 58.8807 0 57.5 0ZM5.83333 42.875C5.61232 42.875 5.40036 42.7674 5.24408 42.576C5.0878 42.3846 5 42.1249 5 41.8542V10.2083H6.66667V41.8542C6.66667 42.1249 6.57887 42.3846 6.42259 42.576C6.26631 42.7674 6.05435 42.875 5.83333 42.875ZM30.4167 40.8333H14.5833C13.893 40.8333 13.3333 40.1477 13.3333 39.3021V38.2813C13.3333 37.4356 13.893 36.75 14.5833 36.75H30.4167C31.107 36.75 31.6667 37.4356 31.6667 38.2813V39.3021C31.6667 40.1477 31.107 40.8333 30.4167 40.8333ZM52.0833 40.8333H36.25C35.5597 40.8333 35 40.1477 35 39.3021V38.2813C35 37.4356 35.5597 36.75 36.25 36.75H52.0833C52.7736 36.75 53.3333 37.4356 53.3333 38.2813V39.3021C53.3333 40.1477 52.7736 40.8333 52.0833 40.8333ZM30.4167 28.5833H14.5833C13.893 28.5833 13.3333 27.8977 13.3333 27.0521V26.0313C13.3333 25.1856 13.893 24.5 14.5833 24.5H30.4167C31.107 24.5 31.6667 25.1856 31.6667 26.0313V27.0521C31.6667 27.8977 31.107 28.5833 30.4167 28.5833ZM52.0833 28.5833H36.25C35.5597 28.5833 35 27.8977 35 27.0521V26.0313C35 25.1856 35.5597 24.5 36.25 24.5H52.0833C52.7736 24.5 53.3333 25.1856 53.3333 26.0313V27.0521C53.3333 27.8977 52.7736 28.5833 52.0833 28.5833ZM52.0833 16.3333H14.5833C13.893 16.3333 13.3333 15.6477 13.3333 14.8021V9.69792C13.3333 8.85228 13.893 8.16667 14.5833 8.16667H52.0833C52.7736 8.16667 53.3333 8.85228 53.3333 9.69792V14.8021C53.3333 15.6477 52.7736 16.3333 52.0833 16.3333Z" fill="black"/>
</svg>
