<svg width="80" height="112.727" viewBox="0 0 88 124" fill="none" xmlns="http://www.w3.org/2000/svg">
<path d="M43.9464 123.687L8.1338 113.752L0.152954 24.3075H87.847L79.8579 113.739L43.9464 123.687V123.687Z" fill="#264DE4"/>
<path d="M73.0183 108.044L79.8452 31.6207H44V116.083L73.0183 108.044V108.044Z" fill="#2965F1"/>
<path d="M18.4487 64.7947L19.4325 75.7647H44V64.7947H18.4487Z" fill="#EBEBEB"/>
<path d="M16.4715 42.5911L17.4694 53.5611H44V42.5911H16.4715V42.5911Z" fill="#EBEBEB"/>
<path d="M44 93.2851L43.9519 93.2978L31.7254 89.9989L30.9437 81.2499H19.923L21.461 98.4745L43.9494 104.712L44 104.699V93.2851Z" fill="#EBEBEB"/>
<path d="M20.7914 0H34.0876V5.5563H26.3519V11.1126H34.0883V16.6686H20.7914V0Z" fill="black"/>
<path d="M36.7472 0H50.0438V4.83154H42.3077V5.79777H50.0438V16.9104H36.7476V11.8367H44.4837V10.8704H36.7469V0H36.7472Z" fill="black"/>
<path d="M52.7034 0H66V4.83154H58.2639V5.79777H66V16.9104H52.7034V11.8367H60.4395V10.8704H52.7038V0H52.7034Z" fill="black"/>
<path d="M69.4812 64.7946L71.4629 42.5911H43.9622V53.5611H59.4316L58.4327 64.7946H43.9622V75.7647H57.4809L56.2062 89.992L43.9619 93.2944V104.707L66.4682 98.4745L66.6332 96.6211L69.2134 67.7404L69.4812 64.7946V64.7946Z" fill="white"/>
</svg>
