<svg width="108" height="107" viewBox="0 0 108 107" fill="none" xmlns="http://www.w3.org/2000/svg">
<path d="M92.8125 11.7031H15.1875C13.3207 11.7031 11.8125 13.1974 11.8125 15.0469V91.9531C11.8125 93.8026 13.3207 95.2969 15.1875 95.2969H92.8125C94.6793 95.2969 96.1875 93.8026 96.1875 91.9531V15.0469C96.1875 13.1974 94.6793 11.7031 92.8125 11.7031ZM89.4375 88.6094H70.0207V62.9252H80.9895L82.6348 50.313H70.0207V42.2566C70.0207 38.5994 71.0438 36.1125 76.3277 36.1125H83.0672V24.8273C81.8965 24.6706 77.8992 24.3258 73.2375 24.3258C63.5133 24.3258 56.8582 30.2087 56.8582 41.0027V50.3025H45.8684V62.9147H56.8688V88.6094H18.5625V18.3906H89.4375V88.6094Z" fill="black"/>
</svg>
