<svg width="79" height="116" viewBox="0 0 79 116" fill="none" xmlns="http://www.w3.org/2000/svg">
<g clip-path="url(#clip0)">
<path d="M19.5757 115.867C30.3816 115.867 39.1515 107.216 39.1515 96.5561V77.2449H19.5757C8.76993 77.2449 0 85.8963 0 96.5561C0 107.216 8.76993 115.867 19.5757 115.867Z" fill="#0ACF83"/>
<path d="M0 57.9336C0 47.2739 8.76993 38.6224 19.5757 38.6224H39.1515V77.2448H19.5757C8.76993 77.2448 0 68.5934 0 57.9336Z" fill="#A259FF"/>
<path d="M0 19.3112C0 8.65142 8.76993 0 19.5757 0H39.1515V38.6224H19.5757C8.76993 38.6224 0 29.971 0 19.3112Z" fill="#F24E1E"/>
<path d="M39.1515 0H58.7272C69.533 0 78.303 8.65142 78.303 19.3112C78.303 29.971 69.533 38.6224 58.7272 38.6224H39.1515V0Z" fill="#FF7262"/>
<path d="M78.303 57.9336C78.303 68.5934 69.533 77.2448 58.7272 77.2448C47.9214 77.2448 39.1515 68.5934 39.1515 57.9336C39.1515 47.2739 47.9214 38.6224 58.7272 38.6224C69.533 38.6224 78.303 47.2739 78.303 57.9336Z" fill="#1ABCFE"/>
</g>
<defs>
<clipPath id="clip0">
<rect width="78.303" height="115.867" fill="white"/>
</clipPath>
</defs>
</svg>
