<svg width="60" height="60" viewBox="0 0 60 60" fill="none" xmlns="http://www.w3.org/2000/svg">
<path d="M50.2334 5.00016C50.2334 4.55814 50.0578 4.13421 49.7452 3.82165C49.4327 3.50909 49.0088 3.3335 48.5667 3.3335H11.9001C11.458 3.3335 11.0341 3.50909 10.7216 3.82165C10.409 4.13421 10.2334 4.55814 10.2334 5.00016V6.66683H50.2334V5.00016Z" fill="black"/>
<path d="M53.5334 11.6667C53.5334 11.2246 53.3578 10.8007 53.0452 10.4882C52.7327 10.1756 52.3087 10 51.8667 10H8.53337C8.09134 10 7.66742 10.1756 7.35485 10.4882C7.04229 10.8007 6.8667 11.2246 6.8667 11.6667V13.3333H53.5334V11.6667Z" fill="black"/>
<path d="M53.5334 16.6665H6.46671C5.6357 16.6665 4.83872 16.9966 4.25111 17.5842C3.66349 18.1718 3.33337 18.9688 3.33337 19.7998V50.1998C3.33337 51.0308 3.66349 51.8278 4.25111 52.4154C4.83872 53.003 5.6357 53.3332 6.46671 53.3332H53.5334C54.3644 53.3332 55.1614 53.003 55.749 52.4154C56.3366 51.8278 56.6667 51.0308 56.6667 50.1998V19.7998C56.6667 18.9688 56.3366 18.1718 55.749 17.5842C55.1614 16.9966 54.3644 16.6665 53.5334 16.6665V16.6665ZM14.2667 22.4165C15.2556 22.4165 16.2223 22.7097 17.0446 23.2592C17.8668 23.8086 18.5077 24.5895 18.8861 25.5031C19.2645 26.4167 19.3636 27.422 19.1706 28.392C18.9777 29.3619 18.5015 30.2528 17.8022 30.952C17.103 31.6513 16.2121 32.1275 15.2422 32.3204C14.2723 32.5134 13.2669 32.4143 12.3533 32.0359C11.4397 31.6575 10.6588 31.0166 10.1094 30.1944C9.55995 29.3721 9.26671 28.4054 9.26671 27.4165C9.26671 26.0904 9.79349 24.8187 10.7312 23.881C11.6689 22.9433 12.9406 22.4165 14.2667 22.4165V22.4165ZM50 46.6665H10L22.4334 34.2165C22.655 33.9967 22.9545 33.8733 23.2667 33.8733C23.5789 33.8733 23.8784 33.9967 24.1 34.2165L30.2334 40.3498L38.6834 31.6665C38.905 31.4467 39.2045 31.3233 39.5167 31.3233C39.8289 31.3233 40.1284 31.4467 40.35 31.6665L50 41.3165V46.6665Z" fill="black"/>
</svg>
