<svg width="150" height="60.8" viewBox="0 0 296 120" fill="none" xmlns="http://www.w3.org/2000/svg">
<path d="M176.635 41.3489C170.172 41.3489 165.36 44.4022 165.36 51.7511C165.36 57.2878 168.532 61.1322 176.286 61.1322C182.859 61.1322 187.324 57.4044 187.324 51.5211C187.324 44.8544 183.329 41.3489 176.635 41.3489ZM163.715 93.2389C162.185 95.0445 160.661 96.9645 160.661 99.2278C160.661 103.747 166.649 105.107 174.874 105.107C181.686 105.107 190.967 104.647 190.967 98.5511C190.967 94.9278 186.502 94.7045 180.861 94.3645L163.715 93.2389ZM198.483 41.69C200.594 44.29 202.829 47.9089 202.829 53.1078C202.829 65.6544 192.61 73.0011 177.812 73.0011C174.05 73.0011 170.644 72.55 168.532 71.9856L164.654 77.9745L176.164 78.6522C196.487 79.8989 208.464 80.4656 208.464 95.4933C208.464 108.496 196.604 115.839 176.164 115.839C154.904 115.839 146.799 110.639 146.799 101.71C146.799 96.6233 149.148 93.9156 153.26 90.1789C149.383 88.6022 148.092 85.7778 148.092 82.7233C148.092 80.2344 149.383 77.9756 151.5 75.8256C153.613 73.6811 155.962 71.5311 158.781 69.0444C153.027 66.3311 148.679 60.4533 148.679 52.0867C148.679 39.09 157.607 30.1633 175.575 30.1633C180.627 30.1633 183.682 30.61 186.384 31.2933H209.291V40.8978L198.483 41.69Z" fill="#2F2707"/>
<path d="M229.956 21.1488C223.26 21.1488 219.384 17.4155 219.384 10.97C219.384 4.53329 223.259 1.02551 229.956 1.02551C236.769 1.02551 240.646 4.53329 240.646 10.97C240.646 17.4155 236.77 21.1488 229.956 21.1488ZM214.801 89.0788V80.1533L220.794 79.3644C222.439 79.1366 222.672 78.7988 222.672 77.1V43.8666C222.672 42.6266 222.321 41.8311 221.142 41.4955L214.801 39.3455L216.092 30.1922H240.409V77.1C240.409 78.9111 240.522 79.1366 242.29 79.3655L248.28 80.1544V89.0788H214.801Z" fill="#2F2707"/>
<path d="M294.73 84.6966C289.678 87.0689 282.278 89.2167 275.58 89.2167C261.603 89.2167 256.319 83.7966 256.319 71.0167V41.4044C256.319 40.7267 256.319 40.2744 255.376 40.2744H247.155V30.2111C257.495 29.0778 261.603 24.1044 262.895 11.7833H274.055V27.8389C274.055 28.6278 274.055 28.9689 274.996 28.9689H291.556V40.2722H274.055V67.2866C274.055 73.9555 275.702 76.5533 282.041 76.5533C285.334 76.5533 288.737 75.7644 291.555 74.7467L294.73 84.6955" fill="#2F2707"/>
<path d="M120.689 55.0333L66.9816 3.35222C66.2461 2.64419 65.3728 2.08253 64.4117 1.69933C63.4506 1.31613 62.4204 1.1189 61.3801 1.1189C60.3397 1.1189 59.3096 1.31613 58.3485 1.69933C57.3873 2.08253 56.5141 2.64419 55.7786 3.35222L44.6263 14.0856L58.7736 27.6989C60.4365 27.1546 62.2246 27.0695 63.9353 27.453C65.6459 27.8365 67.2108 28.6734 68.4526 29.8689C69.701 31.0719 70.5727 32.5886 70.9679 34.2457C71.3632 35.9028 71.2661 37.6335 70.6879 39.24L84.3202 52.3611C87.6189 51.2678 91.4256 51.9756 94.0592 54.5144C94.9348 55.3565 95.6294 56.3564 96.1033 57.4569C96.5772 58.5575 96.8211 59.7371 96.8211 60.9283C96.8211 62.1196 96.5772 63.2992 96.1033 64.3997C95.6294 65.5003 94.9348 66.5001 94.0592 67.3422C92.5187 68.8261 90.4914 69.7504 88.3225 69.9577C86.1535 70.165 83.977 69.6426 82.1632 68.4793C80.3495 67.316 79.0107 65.5838 78.3748 63.5776C77.7389 61.5713 77.8451 59.4149 78.6754 57.4756L65.9609 45.24L65.9598 77.44C66.8815 77.8786 67.7233 78.4579 68.4526 79.1556C69.3281 79.9979 70.0226 80.998 70.4965 82.0987C70.9703 83.1994 71.2142 84.3791 71.2142 85.5705C71.2142 86.762 70.9703 87.9417 70.4965 89.0424C70.0226 90.1431 69.3281 91.1432 68.4526 91.9856C64.7694 95.53 58.8001 95.53 55.1227 91.9856C54.0241 90.9291 53.2138 89.6277 52.7638 88.1972C52.3138 86.7667 52.2381 85.2513 52.5434 83.7859C52.8487 82.3204 53.5255 80.9502 54.5137 79.7972C55.502 78.6441 56.7709 77.744 58.2078 77.1767V44.6767C57.0519 44.2224 56.0027 43.5491 55.1227 42.6967C52.3332 40.0156 51.6624 36.0767 53.0918 32.78L39.1466 19.3578L2.32189 54.7933C1.58603 55.5014 1.00232 56.3421 0.604072 57.2673C0.205828 58.1925 0.000854492 59.1841 0.000854492 60.1856C0.000854492 61.187 0.205828 62.1786 0.604072 63.1038C1.00232 64.029 1.58603 64.8697 2.32189 65.5778L56.0291 117.26C57.5149 118.689 59.5297 119.492 61.6306 119.492C63.7315 119.492 65.7464 118.689 67.2322 117.26L120.689 65.8189C122.174 64.3883 123.009 62.4486 123.009 60.4261C123.009 58.4036 122.174 56.4639 120.689 55.0333Z" fill="#DE4C36"/>
</svg>
