<svg width="99" height="99" viewBox="0 0 99 99" fill="none" xmlns="http://www.w3.org/2000/svg">
<g clip-path="url(#clip0)">
<path d="M47.4613 5.37665C23.5524 5.36698 4.1875 24.7223 4.1875 48.6118C4.1875 67.503 16.3015 83.5615 33.1721 89.459C35.444 90.0294 35.096 88.4148 35.096 87.3127V79.82C21.9766 81.3572 21.4448 72.6754 20.565 71.2252C18.7861 68.1894 14.5806 67.416 15.8374 65.9658C18.8248 64.4286 21.8702 66.3525 25.399 71.5636C27.9514 75.3438 32.9304 74.7057 35.4537 74.0772C36.0048 71.8053 37.1843 69.775 38.8085 68.1991C25.2153 65.7628 19.5499 57.4677 19.5499 47.6063C19.5499 42.8207 21.1258 38.4218 24.2195 34.8736C22.2473 29.0245 24.4032 24.0165 24.6933 23.2721C30.3104 22.7693 36.1498 27.2939 36.6042 27.6517C39.7946 26.7912 43.4395 26.3368 47.5193 26.3368C51.6186 26.3368 55.273 26.8105 58.4925 27.6807C59.585 26.8492 64.999 22.9627 70.2197 23.4364C70.5001 24.1809 72.6077 29.0728 70.7515 34.8446C73.8839 38.4024 75.4791 42.84 75.4791 47.6353C75.4791 57.516 69.775 65.8208 56.1432 68.2184C57.3108 69.3667 58.2379 70.7361 58.8703 72.2467C59.5028 73.7572 59.8279 75.3787 59.8267 77.0163V87.8928C59.904 88.7629 59.8267 89.6233 61.2769 89.6233C78.3988 83.8516 90.7255 67.677 90.7255 48.6215C90.7255 24.7223 71.3509 5.37665 47.4613 5.37665Z" fill="black"/>
</g>
<defs>
<clipPath id="clip0">
<rect width="99" height="99" rx="5" fill="white"/>
</clipPath>
</defs>
</svg>
