<svg width="80" height="112.941176" viewBox="0 0 85 120" fill="none" xmlns="http://www.w3.org/2000/svg">
<path d="M84.8522 23.5233L77.1355 110.07L42.4482 119.697L7.8565 110.083L0.147736 23.5233H84.8522Z" fill="#E44D26"/>
<path d="M42.5 112.338L70.5291 104.559L77.1232 30.6007H42.5V112.338Z" fill="#F16529"/>
<path d="M27.4988 51.8333H42.5V41.2172H15.9099L16.1636 44.0653L18.7701 73.3207H42.5V62.7045H28.468L27.4988 51.8333V51.8333Z" fill="#EBEBEB"/>
<path d="M29.8888 78.6289H19.2439L20.7294 95.2979L42.4512 101.334L42.5 101.321V90.2759L42.4535 90.2882L30.6438 87.0957L29.8888 78.6289V78.6289Z" fill="#EBEBEB"/>
<path d="M8.0285 0H13.4174V5.33019H18.347V0H23.7362V16.1412H18.3474V10.7362H13.4177V16.1412H8.02884V0H8.0285Z" fill="black"/>
<path d="M30.8225 5.3528H26.0791V0H40.9587V5.3528H36.2123V16.1412H30.8235V5.3528H30.8231H30.8225Z" fill="black"/>
<path d="M43.3201 0H48.9391L52.3955 5.67158L55.8487 0H61.47V16.1412H56.103V8.14072L52.3955 13.8798H52.3026L48.5928 8.14072V16.1412H43.3201V0Z" fill="black"/>
<path d="M64.1518 0H69.5423V10.806H77.1206V16.1412H64.1514V0H64.1518Z" fill="black"/>
<path d="M42.4635 73.3206H55.5213L54.2901 87.0891L42.4631 90.2848V101.329L64.2022 95.2979L64.3616 93.5042L66.8538 65.5552L67.1125 62.7045H42.4635V73.3206Z" fill="white"/>
<path d="M42.4635 51.8074V51.8333H68.0774L68.2899 49.4473L68.7733 44.0653L69.0266 41.2172H42.4635V51.8077V51.8074Z" fill="white"/>
</svg>
