<svg width="90" height="90" viewBox="0 0 94 94" fill="none" xmlns="http://www.w3.org/2000/svg">
<path d="M0 0H94V94H0V0Z" fill="#F7DF1E"/>
<path d="M24.7161 78.5531L31.9093 74.1998C33.2973 76.6603 34.5597 78.7422 37.5879 78.7422C40.4905 78.7422 42.3209 77.6069 42.3209 73.1904V43.1552H51.1544V73.3152C51.1544 82.4644 45.7912 86.629 37.9665 86.629C30.8999 86.629 26.7981 82.9693 24.7158 78.5524" fill="black"/>
<path d="M55.9524 77.6065L63.1449 73.4422C65.0384 76.5343 67.4993 78.8058 71.8527 78.8058C75.5132 78.8058 77.847 76.9757 77.847 74.4516C77.847 71.4231 75.4493 70.3502 71.411 68.584L69.2031 67.6366C62.8298 64.9242 58.6024 61.5167 58.6024 54.3235C58.6024 47.698 63.6501 42.6499 71.5377 42.6499C77.1534 42.6499 81.1918 44.6063 84.094 49.7172L77.2158 54.1344C75.7012 51.4213 74.0613 50.3487 71.5373 50.3487C68.9501 50.3487 67.3095 51.9893 67.3095 54.1344C67.3095 56.7844 68.9501 57.8577 72.7358 59.4983L74.9441 60.4445C82.453 63.6629 86.6805 66.9438 86.6805 74.3257C86.6805 82.2768 80.4339 86.6302 72.0418 86.6302C63.8392 86.6302 58.5389 82.7181 55.952 77.6069" fill="black"/>
</svg>
