<svg width="100" height="99" viewBox="0 0 100 99" fill="none" xmlns="http://www.w3.org/2000/svg">
<g clip-path="url(#clip0)">
<path d="M82.7832 11.9375H17.2168C13.75 11.9375 10.9375 14.75 10.9375 18.2168V83.7832C10.9375 87.25 13.75 90.0625 17.2168 90.0625H82.7832C86.25 90.0625 89.0625 87.25 89.0625 83.7832V18.2168C89.0625 14.75 86.25 11.9375 82.7832 11.9375ZM82.7832 83.8125C39.0527 83.8027 17.1875 83.793 17.1875 83.7832C17.1973 40.0527 17.207 18.1875 17.2168 18.1875C60.9473 18.1973 82.8125 18.207 82.8125 18.2168C82.8027 61.9473 82.793 83.8125 82.7832 83.8125ZM22.5195 41.2246H34.1113V78.5098H22.5195V41.2246ZM28.3203 36.127C32.0215 36.127 35.0391 33.1191 35.0391 29.4082C35.0391 28.5259 34.8653 27.6522 34.5276 26.837C34.19 26.0219 33.6951 25.2812 33.0712 24.6573C32.4473 24.0334 31.7066 23.5385 30.8915 23.2009C30.0763 22.8632 29.2026 22.6895 28.3203 22.6895C27.438 22.6895 26.5643 22.8632 25.7492 23.2009C24.934 23.5385 24.1933 24.0334 23.5694 24.6573C22.9455 25.2812 22.4506 26.0219 22.113 26.837C21.7753 27.6522 21.6016 28.5259 21.6016 29.4082C21.5918 33.1191 24.5996 36.127 28.3203 36.127ZM52.959 60.0625C52.959 55.1992 53.8867 50.4922 59.9121 50.4922C65.8496 50.4922 65.9375 56.0488 65.9375 60.375V78.5098H77.5195V58.0605C77.5195 48.0215 75.3516 40.2969 63.623 40.2969C57.9883 40.2969 54.209 43.3926 52.6562 46.3223H52.5V41.2246H41.377V78.5098H52.959V60.0625Z" fill="black"/>
</g>
<defs>
<clipPath id="clip0">
<rect width="100" height="99" rx="5" fill="white"/>
</clipPath>
</defs>
</svg>
