<svg width="100" height="99" viewBox="0 0 100 99" fill="none" xmlns="http://www.w3.org/2000/svg">
<g clip-path="url(#clip0)">
<rect width="100" height="99" rx="5" fill="white"/>
<g clip-path="url(#clip1)">
<path d="M99.5938 -3.90625H0.40625C-1.9791 -3.90625 -3.90625 -1.9791 -3.90625 0.40625V99.5938C-3.90625 101.979 -1.9791 103.906 0.40625 103.906H99.5938C101.979 103.906 103.906 101.979 103.906 99.5938V0.40625C103.906 -1.9791 101.979 -3.90625 99.5938 -3.90625ZM28.0736 87.9635H12.077V36.51H28.0736V87.9635ZM20.082 29.4752C18.2482 29.4752 16.4556 28.9314 14.9309 27.9126C13.4061 26.8938 12.2177 25.4457 11.5159 23.7515C10.8142 22.0573 10.6306 20.193 10.9883 18.3945C11.3461 16.5959 12.2291 14.9438 13.5258 13.6471C14.8225 12.3504 16.4746 11.4674 18.2732 11.1096C20.0717 10.7518 21.936 10.9355 23.6302 11.6372C25.3244 12.339 26.7725 13.5274 27.7913 15.0521C28.8101 16.5769 29.3539 18.3695 29.3539 20.2033C29.3404 25.3244 25.1896 29.4752 20.082 29.4752ZM87.9635 87.9635H71.9803V62.9375C71.9803 56.9674 71.8725 49.2992 63.6652 49.2992C55.3502 49.2992 54.0699 55.7949 54.0699 62.5062V87.9635H38.1002V36.51H53.4365V43.5447H53.6521C55.7814 39.5018 60.9969 35.2297 68.7863 35.2297C84.9852 35.2297 87.9635 45.8896 87.9635 59.7436V87.9635V87.9635Z" fill="black"/>
</g>
</g>
<defs>
<clipPath id="clip0">
<rect width="100" height="99" rx="5" fill="white"/>
</clipPath>
<clipPath id="clip1">
<rect width="100" height="99" rx="5" fill="white"/>
</clipPath>
</defs>
</svg>
