<svg width="70" height="75" viewBox="0 0 70 75" fill="none" xmlns="http://www.w3.org/2000/svg">
<rect width="70" height="75" fill="white"/>
<circle cx="34.5" cy="42.5" r="31.5" fill="white" stroke="#E8491D" stroke-width="2"/>
<circle cx="34.5" cy="42.5" r="25" fill="white" stroke="url(#paint0_linear)" stroke-width="5"/>
<path d="M36.065 61.9C33.275 61.9 30.53 61.105 27.83 59.515L24.005 61.45H23.015V49.885H24.005L27.875 58.255C30.365 60.025 33.215 60.91 36.425 60.91C39.065 60.91 41.24 60.22 42.95 58.84C44.69 57.43 45.56 55.465 45.56 52.945C45.56 51.115 45.005 49.675 43.895 48.625C42.785 47.545 40.985 46.69 38.495 46.06L31.025 44.125C28.415 43.435 26.45 42.265 25.13 40.615C23.81 38.935 23.15 36.955 23.15 34.675C23.15 32.605 23.555 30.775 24.365 29.185C25.205 27.565 26.42 26.32 28.01 25.45C29.6 24.55 31.49 24.1 33.68 24.1C36.41 24.1 38.855 24.565 41.015 25.495L44.3 24.1H45.29V33.28H44.3L41.06 26.71C38.81 25.63 36.365 25.09 33.725 25.09C31.115 25.09 29.06 25.765 27.56 27.115C26.06 28.435 25.31 30.19 25.31 32.38C25.31 34 25.835 35.275 26.885 36.205C27.965 37.135 29.54 37.87 31.61 38.41L39.665 40.525C42.275 41.185 44.21 42.325 45.47 43.945C46.76 45.535 47.405 47.965 47.405 51.235C47.405 54.565 46.37 57.175 44.3 59.065C42.26 60.955 39.515 61.9 36.065 61.9Z" fill="#E8491D"/>
<defs>
<linearGradient id="paint0_linear" x1="34.5" y1="15" x2="34.5" y2="70" gradientUnits="userSpaceOnUse">
<stop stop-color="#E8491D"/>
<stop offset="1" stop-color="white"/>
</linearGradient>
</defs>
</svg>
