<svg width="300" height="70" viewBox="0 0 440 120" fill="none" xmlns="http://www.w3.org/2000/svg">
<g clip-path="url(#clip0)">
<path fill-rule="evenodd" clip-rule="evenodd" d="M408.932 49.6956C408.538 49.7712 408.141 50.6055 408.141 51.06C408.062 54.0945 407.984 62.1345 407.984 67.5953C407.984 67.7474 408.22 68.0507 408.458 68.0507C409.645 68.1263 412.495 68.2019 414.949 68.2019C418.353 68.2019 420.332 67.7474 421.441 67.2929C424.29 65.9268 425.636 62.9688 425.636 59.7066C425.636 52.3504 420.253 49.5436 412.257 49.5436C411.703 49.4679 410.121 49.4679 408.932 49.6956ZM429.357 83.5997C429.357 76.0907 423.578 71.9186 413.129 71.9186C412.654 71.9186 409.329 71.843 408.537 71.9942C408.299 72.0707 407.984 72.2227 407.984 72.4504C407.984 77.8348 407.904 86.4066 408.141 89.7436C408.299 91.1844 409.408 93.2326 410.754 93.8392C412.178 94.5978 415.424 94.749 417.641 94.749C423.894 94.749 429.357 91.4121 429.357 83.5997ZM392.785 45.5244C393.576 45.5244 395.95 45.7512 402.046 45.7512C407.825 45.7512 412.416 45.6 418.036 45.6C424.923 45.6 434.422 47.9507 434.422 57.8112C434.422 62.6655 430.86 66.5342 426.19 68.4304C425.953 68.506 425.953 68.6573 426.19 68.7329C432.839 70.3266 438.698 74.2701 438.698 81.7027C438.698 88.9849 433.948 93.6115 427.061 96.494C422.865 98.2381 417.641 98.8447 412.337 98.8447C408.299 98.8447 397.455 98.3901 391.439 98.5422C390.806 98.3137 391.993 95.5833 392.546 95.1288C393.972 95.0523 395.079 94.9767 396.584 94.5214C398.722 93.9912 398.958 93.3838 399.275 90.2745C399.434 87.6197 399.434 78.2137 399.434 71.5397C399.434 62.3622 399.513 56.1427 399.434 53.109C399.355 50.7584 398.484 49.9989 396.743 49.5436C395.396 49.3167 393.18 49.0126 391.359 48.7857C390.963 48.406 392.309 45.8268 392.785 45.5244ZM347.108 92.7016C349.009 94.1416 352.729 94.7482 356.054 94.7482C360.328 94.7482 364.603 93.9912 368.72 90.4249C372.915 86.7855 375.844 81.1726 375.844 72.2227C375.844 63.651 372.44 56.6729 365.474 52.5781C361.516 50.2258 356.449 49.2411 350.591 49.2411C348.85 49.2411 347.188 49.3167 346.159 49.7712C345.921 49.9233 345.367 50.6055 345.367 50.9844C345.209 52.5016 345.209 64.1819 345.209 71.0088C345.209 78.0625 345.209 87.923 345.367 89.0605C345.367 90.1989 345.921 91.943 347.109 92.7016H347.108ZM329.138 45.5236C330.643 45.5236 336.421 45.7512 339.192 45.7512C344.18 45.7512 347.742 45.5244 357.161 45.5244C365.077 45.5244 371.727 47.5718 376.477 51.4397C382.255 56.2184 385.264 62.8175 385.264 70.8567C385.264 82.3101 379.802 88.9093 374.339 92.7016C368.878 96.5696 361.753 98.8447 351.621 98.8447C346.238 98.8447 336.976 98.6934 329.297 98.617H329.218C328.823 97.9348 329.851 95.28 330.484 95.2044C332.543 94.9767 333.097 94.9003 334.126 94.5222C335.788 93.9148 336.105 93.0805 336.343 90.2745C336.58 85.0405 336.501 78.7455 336.501 71.6153C336.501 66.5342 336.58 56.5973 336.421 53.4115C336.184 50.7575 334.997 50.0745 332.622 49.6192C331.435 49.3923 329.851 49.0882 327.635 48.8614C327.318 48.3296 328.743 45.9789 329.138 45.5244V45.5236Z" fill="#8E714E"/>
<path fill-rule="evenodd" clip-rule="evenodd" d="M233.354 95.6589C231.375 95.4313 229.951 95.1288 228.209 94.3702C227.972 94.2181 227.575 93.4603 227.575 93.1562C227.417 90.5014 227.417 82.9167 227.417 77.8356C227.417 73.7392 226.705 70.1745 224.884 67.6718C222.747 64.7885 219.66 63.1208 215.701 63.1208C212.219 63.1208 207.548 65.3959 203.669 68.5817C203.59 68.6573 202.957 69.1891 203.036 68.354C203.036 67.5198 203.194 65.8513 203.273 64.7129C203.353 63.651 202.719 63.1208 202.719 63.1208C200.186 64.334 193.062 65.9269 190.449 66.1537C188.55 66.5343 188.075 68.2784 190.054 68.885H190.133C192.269 69.4915 193.695 70.1745 194.802 70.8576C195.594 71.4641 195.515 72.2984 195.515 72.9814C195.594 78.6691 195.594 87.3921 195.357 92.1707C195.278 94.0669 194.724 94.7491 193.299 95.0524L193.457 94.9767C192.349 95.2044 191.478 95.4313 190.132 95.5833C189.657 96.0387 189.657 98.4658 190.132 98.9967C191.003 98.9967 195.594 98.7691 199.395 98.7691C204.619 98.7691 207.311 98.9967 208.656 98.9967C209.21 98.3902 209.369 96.1143 209.052 95.5833C207.548 95.5077 206.44 95.3565 205.411 95.0524C203.986 94.7482 203.59 94.0669 203.51 92.474C203.353 88.4532 203.353 79.9587 203.353 74.1945C203.353 72.6017 203.827 71.843 204.302 71.3877C206.123 69.8713 209.052 68.8093 211.664 68.8093C214.198 68.8093 215.859 69.568 217.126 70.5543C218.868 71.9187 219.422 73.8913 219.659 75.3321C220.055 78.5935 219.897 85.0406 219.897 90.6535C219.897 93.6871 219.659 94.4458 218.473 94.8247C217.918 95.0524 216.493 95.3565 214.831 95.5069C214.277 96.0387 214.435 98.3902 214.831 98.9211C217.126 98.9211 219.818 98.6935 223.776 98.6935C228.684 98.6935 231.851 98.9211 233.118 98.9211C233.512 98.4658 233.671 96.2663 233.354 95.6589ZM255.282 66.6863C251.087 66.6863 248.474 69.7956 248.474 74.6491C248.474 79.5798 250.77 85.2682 257.261 85.2682C258.369 85.2682 260.428 84.8129 261.377 83.751C262.881 82.3866 263.911 79.6554 263.911 76.7729C263.911 70.4778 260.665 66.6855 255.282 66.6855V66.6863ZM254.728 100.21C253.145 100.21 252.036 100.665 251.324 101.045C247.999 103.092 246.495 105.064 246.495 107.416C246.495 109.615 247.366 111.359 249.266 112.876C251.562 114.773 254.728 115.683 258.765 115.683C266.839 115.683 270.402 111.511 270.402 107.416C270.402 104.533 268.897 102.637 265.811 101.576C263.594 100.665 259.557 100.21 254.728 100.21ZM255.282 119.931C250.453 119.931 246.97 118.945 243.962 116.745C241.033 114.621 239.767 111.436 239.767 109.236C239.767 108.63 239.925 106.96 241.35 105.444C242.22 104.533 244.121 102.789 248.633 99.831C248.791 99.7554 248.87 99.6798 248.87 99.5269C248.87 99.3756 248.711 99.2236 248.553 99.1488C244.833 97.7836 243.725 95.5833 243.407 94.3702V94.2181C243.329 93.7628 243.17 93.3082 243.883 92.8529C244.437 92.474 245.229 92.0187 246.099 91.4885C247.445 90.7291 248.87 89.8948 249.74 89.2118C249.899 89.0606 249.899 88.9093 249.899 88.7573C249.899 88.6052 249.74 88.4532 249.582 88.3784C244.042 86.6335 241.271 82.6891 241.271 76.7729C241.271 72.905 243.091 69.4159 246.337 67.2165C248.553 65.548 254.095 63.4998 257.736 63.4998H257.974C261.694 63.5754 263.752 64.334 266.681 65.3203C268.264 65.8513 269.769 66.0781 271.827 66.0781C274.914 66.0781 276.26 65.1683 277.367 64.1072C277.447 64.2584 277.606 64.6381 277.685 65.6236C277.764 66.6099 277.447 68.0507 276.655 69.1126C276.022 69.9469 274.597 70.5543 273.173 70.5543H272.776C271.351 70.4022 270.717 70.2502 270.717 70.2502L270.402 70.4022C270.323 70.5543 270.402 70.7055 270.481 70.9332L270.56 71.0852C270.718 71.7674 271.035 73.8148 271.035 74.3466C271.035 80.5661 268.423 83.2956 265.652 85.3439C262.96 87.24 259.874 88.4532 256.39 88.7573C256.311 88.7573 255.996 88.7573 255.282 88.8329C254.886 88.8329 254.332 88.9093 254.253 88.9093H254.174C253.541 89.0606 251.958 89.8192 251.958 91.108C251.958 92.2455 252.67 93.6115 256.074 93.8392C256.786 93.9148 257.498 93.9148 258.29 93.9913C262.802 94.2937 268.423 94.6734 271.035 95.5077C274.676 96.7965 276.972 99.9066 276.972 103.623C276.972 109.237 272.777 114.47 265.811 117.731C262.407 119.172 259.002 119.931 255.282 119.931ZM300.403 67.0652C298.741 67.0652 297.237 67.4433 296.129 68.2019C293.042 70.0225 291.459 73.6636 291.459 78.9724C291.459 88.9093 296.683 95.8874 304.124 95.8874C306.341 95.8874 308.082 95.28 309.586 94.0669C311.881 92.2455 313.07 88.6052 313.07 83.5233C313.07 73.6636 307.924 67.0644 300.404 67.0644L300.403 67.0652ZM301.829 99.5277C288.371 99.5277 283.543 90.0469 283.543 81.1726C283.543 74.9532 286.155 70.1745 291.379 66.7611C295.1 64.5617 299.533 63.3485 303.491 63.3485C313.782 63.3485 320.985 70.4022 320.985 80.5661C320.985 87.4677 318.136 92.9285 312.673 96.2663C310.061 97.9348 305.549 99.5277 301.828 99.5277H301.829ZM160.764 67.0644C159.102 67.0644 157.598 67.4433 156.489 68.2019C153.402 70.0225 151.819 73.6636 151.819 78.9724C151.819 88.9093 157.043 95.8874 164.485 95.8874C166.701 95.8874 168.443 95.28 169.947 94.0669C172.242 92.2455 173.43 88.6052 173.43 83.5233C173.43 73.6636 168.364 67.0644 160.764 67.0644ZM162.189 99.5277C148.732 99.5277 143.903 90.0469 143.903 81.1726C143.903 74.9532 146.515 70.1745 151.739 66.7611C155.46 64.5617 159.894 63.3485 163.851 63.3485C174.143 63.3485 181.346 70.4022 181.346 80.5661C181.346 87.4677 178.496 92.9285 173.034 96.2663C170.5 97.9348 165.988 99.5277 162.189 99.5277ZM71.7083 98.7691C71.5496 98.5422 71.3909 97.8592 71.4707 97.025C71.4707 96.4176 71.6294 96.0387 71.7083 95.8874C73.3707 95.6589 74.2414 95.4313 75.191 95.2044C76.7745 94.8247 77.4076 93.9913 77.4865 92.0951C77.725 87.5441 77.725 78.8967 77.6452 72.905V72.7529C77.6452 72.0707 77.6452 71.2356 76.7745 70.6291C75.5075 69.8713 74.0038 69.1891 72.0248 68.6565C71.3128 68.4304 70.8376 68.0507 70.9165 67.5962C70.9165 67.1408 71.3917 66.6099 72.4211 66.4578C75.0332 66.2302 81.8399 64.6381 84.5318 63.4998C84.6905 63.651 84.9281 64.1072 84.9281 64.7137L84.8492 65.5472C84.7694 66.3822 84.6905 67.3685 84.6905 68.354C84.6905 68.6573 85.0079 68.885 85.3235 68.885C85.4822 68.885 85.6409 68.8093 85.7988 68.7329C90.865 64.9406 95.4561 63.5754 97.8305 63.5754C101.71 63.5754 104.719 65.3203 107.014 68.9606C107.172 69.1891 107.331 69.2647 107.568 69.2647C107.726 69.2647 107.963 69.1891 108.043 69.037C112.714 65.6236 117.384 63.5754 120.471 63.5754C127.833 63.5754 132.187 68.8093 132.187 77.6836C132.187 80.1863 132.187 83.4477 132.108 86.4066C132.108 89.0606 132.029 91.4877 132.029 93.2326C132.029 93.6107 132.582 94.8247 133.453 95.0524C134.561 95.5833 136.066 95.811 138.045 96.1143H138.124C138.283 96.6452 137.966 98.617 137.649 98.9967C137.174 98.9967 136.461 98.9967 135.671 98.9211C133.667 98.8209 131.66 98.7702 129.654 98.7691C124.746 98.7691 122.213 98.8447 119.758 98.9967C119.601 98.3902 119.521 96.5696 119.758 96.1143C121.184 95.8874 121.896 95.6589 122.767 95.4321C124.351 94.9767 124.746 94.2937 124.826 92.3219C124.826 90.8811 125.142 78.5935 124.666 75.6354C124.192 72.6017 121.817 69.037 116.592 69.037C114.613 69.037 111.526 69.7956 108.518 71.9943C108.36 72.1463 108.201 72.5252 108.201 72.7529V72.8293C108.518 74.4214 108.518 76.2428 108.518 79.0488V83.9787C108.518 87.3921 108.438 90.5778 108.518 93.0041C108.518 94.6735 109.547 95.0524 110.418 95.3565C110.893 95.4313 111.209 95.5077 111.605 95.5833C112.317 95.7354 113.03 95.8874 114.138 96.1143C114.297 96.4184 114.297 97.4039 114.06 98.2381C113.98 98.6935 113.821 98.9203 113.742 98.9967C111.051 98.9211 108.28 98.8447 104.244 98.8447C103.056 98.8447 100.998 98.9211 99.2562 98.9211C97.8305 98.9211 96.4854 98.9967 95.6945 98.9967C95.6148 98.8447 95.4561 98.3145 95.4561 97.4795C95.4561 96.7973 95.6148 96.2663 95.7735 96.1143C96.1689 96.0387 96.4854 95.963 96.8818 95.963C97.8305 95.811 98.6231 95.6589 99.414 95.5077C100.761 95.1288 101.235 94.4458 101.314 92.7773C101.552 88.985 101.789 78.1389 101.235 75.4077C100.286 71.0088 97.6735 68.8093 93.4771 68.8093C91.0237 68.8093 87.9356 69.9469 85.4033 71.7682C85.007 72.0707 84.6905 72.8285 84.6905 73.5115V77.9869C84.6905 83.4477 84.6905 90.2745 84.7694 93.2326C84.8492 94.1417 85.1648 95.2044 86.986 95.5833C87.3823 95.6589 88.0154 95.811 88.8071 95.8874L90.2311 96.1143C90.3907 96.5696 90.3109 98.3902 89.9944 98.9967C89.2026 98.9967 88.253 98.9211 87.1438 98.9211C85.4822 98.8447 83.3446 98.7691 80.9701 98.7691C78.1994 98.7691 76.2204 98.8447 74.6369 98.9211C73.5286 98.7691 72.6579 98.7691 71.7083 98.7691Z" fill="#442D22"/>
<path fill-rule="evenodd" clip-rule="evenodd" d="M30.069 116.973L26.8239 115.91C26.8239 115.91 27.2202 100.059 21.2824 98.9212C17.3253 94.5214 21.9172 -87.6649 36.1655 98.3138C36.1655 98.3138 31.2571 100.664 30.3864 104.685C29.436 108.63 30.069 116.973 30.069 116.973Z" fill="white"/>
<path fill-rule="evenodd" clip-rule="evenodd" d="M30.069 116.973L26.8239 115.91C26.8239 115.91 27.2202 100.059 21.2824 98.9212C17.3253 94.5214 21.9172 -87.6649 36.1655 98.3138C36.1655 98.3138 31.2571 100.664 30.3864 104.685C29.436 108.63 30.069 116.973 30.069 116.973Z" fill="#A6A385"/>
<path fill-rule="evenodd" clip-rule="evenodd" d="M31.8113 101.651C31.8113 101.651 60.2307 83.7509 53.5801 46.509C47.1688 19.4326 32.0489 10.5583 30.3864 7.14492C28.5661 4.7178 26.8239 0.470947 26.8239 0.470947L28.012 75.7866C28.012 75.863 25.5578 98.8446 31.8121 101.652" fill="white"/>
<path fill-rule="evenodd" clip-rule="evenodd" d="M31.8113 101.651C31.8113 101.651 60.2307 83.7509 53.5801 46.509C47.1688 19.4326 32.0489 10.5583 30.3864 7.14492C28.5661 4.7178 26.8239 0.470947 26.8239 0.470947L28.012 75.7866C28.012 75.863 25.5578 98.8446 31.8121 101.652" fill="#499D4A"/>
<path fill-rule="evenodd" clip-rule="evenodd" d="M25.1623 102.637C25.1623 102.637 -1.51578 85.1918 0.0677444 54.4743C1.5715 23.7559 20.4117 8.66221 24.0532 5.9318C26.4284 3.50468 26.5074 2.59399 26.6661 0.16687C28.3285 3.58029 28.012 51.2129 28.2487 56.825C28.9607 78.4414 26.9826 98.5422 25.1623 102.637Z" fill="white"/>
<path fill-rule="evenodd" clip-rule="evenodd" d="M25.1623 102.637C25.1623 102.637 -1.51578 85.1918 0.0677444 54.4743C1.5715 23.7559 20.4117 8.66221 24.0532 5.9318C26.4284 3.50468 26.5074 2.59399 26.6661 0.16687C28.3285 3.58029 28.012 51.2129 28.2487 56.825C28.9607 78.4414 26.9826 98.5422 25.1623 102.637Z" fill="#58AA50"/>
</g>
<defs>
<clipPath id="clip0">
<rect width="439.202" height="120" fill="white"/>
</clipPath>
</defs>
</svg>
