<svg width="134" height="134" viewBox="0 0 134 134" fill="none" xmlns="http://www.w3.org/2000/svg">
<path d="M115.156 23.0312H76.2126L67.4188 40.6187H18.425V110.969H123.95V23.0312H115.156ZM115.156 40.6187H80.8188L85.425 31.825H115.156V40.6187Z" fill="#458248"/>
<path d="M112.12 129.813L109.763 129.03C109.763 129.03 110.064 117.091 105.76 116.258C102.92 112.966 106.178 -24.258 116.509 115.789C114.548 116.782 113.047 118.496 112.321 120.571C111.932 123.636 111.865 126.733 112.12 129.813V129.813Z" fill="url(#paint0_linear)"/>
<path d="M113.393 118.284C119.672 113.556 124.48 107.143 127.258 99.7903C130.036 92.4377 130.671 84.4476 129.088 76.7486C124.482 56.3807 113.548 49.6848 112.372 47.1305C111.355 45.5389 110.487 43.8567 109.78 42.1055L110.651 98.8545C110.651 98.8545 108.846 116.195 113.393 118.284Z" fill="url(#paint1_linear)"/>
<path d="M108.561 119.038C108.561 119.038 89.3362 105.944 90.45 82.7827C90.5539 75.8001 92.1549 68.9211 95.1449 62.6102C98.1349 56.2993 102.444 50.7035 107.782 46.2007C108.404 45.6692 108.899 45.0043 109.229 44.2554C109.559 43.5065 109.715 42.6929 109.687 41.875C110.885 44.4503 110.688 80.3246 110.814 84.5205C111.304 100.843 109.909 115.956 108.561 119.038V119.038Z" fill="url(#paint2_linear)"/>
<defs>
<linearGradient id="paint0_linear" x1="96.2622" y1="86.6356" x2="123.374" y2="95.8332" gradientUnits="userSpaceOnUse">
<stop offset="0.231" stop-color="#999875"/>
<stop offset="0.563" stop-color="#9B9977"/>
<stop offset="0.683" stop-color="#A09F7E"/>
<stop offset="0.768" stop-color="#A9A889"/>
<stop offset="0.837" stop-color="#B7B69A"/>
<stop offset="0.896" stop-color="#C9C7B0"/>
<stop offset="0.948" stop-color="#DEDDCB"/>
<stop offset="0.994" stop-color="#F8F6EB"/>
<stop offset="1" stop-color="#FBF9EF"/>
</linearGradient>
<linearGradient id="paint1_linear" x1="106.206" y1="41.7002" x2="118.192" y2="116.537" gradientUnits="userSpaceOnUse">
<stop stop-color="#48A547"/>
<stop offset="1" stop-color="#3F9143"/>
</linearGradient>
<linearGradient id="paint2_linear" x1="88.795" y1="85.0753" x2="120.957" y2="74.3043" gradientUnits="userSpaceOnUse">
<stop stop-color="#41A247"/>
<stop offset="0.352" stop-color="#4BA74B"/>
<stop offset="0.956" stop-color="#67B554"/>
<stop offset="1" stop-color="#69B655"/>
</linearGradient>
</defs>
</svg>
