<svg width="152" height="86.578947" viewBox="0 0 152 94" fill="none" xmlns="http://www.w3.org/2000/svg">
<g clip-path="url(#clip0)">
<path d="M75.142 93.7288C74.6275 93.7288 74.1472 93.5905 73.7009 93.3483L69.1377 90.6151C68.4513 90.2343 68.7945 90.096 69.0005 90.0269C69.9268 89.7155 70.0984 89.6461 71.0591 89.0929C71.1621 89.0234 71.2995 89.0581 71.4022 89.1273L74.9021 91.2378C75.0393 91.3069 75.2109 91.3069 75.3136 91.2378L89.004 83.2454C89.1411 83.1762 89.21 83.0376 89.21 82.8649V66.9148C89.21 66.7415 89.1411 66.6035 89.004 66.5341L75.3136 58.5764C75.1764 58.5069 75.0048 58.5069 74.9021 58.5764L61.2117 66.5341C61.0746 66.6032 61.0057 66.7762 61.0057 66.9145V82.8646C61.0057 83.0032 61.0746 83.1759 61.2117 83.2454L64.9517 85.4251C66.9761 86.4629 68.2456 85.252 68.2456 84.0411V68.2985C68.2456 68.091 68.4172 67.8833 68.6573 67.8833H70.4071C70.6132 67.8833 70.8189 68.0563 70.8189 68.2985V84.0411C70.8189 86.7743 69.3434 88.366 66.7701 88.366C65.981 88.366 65.3635 88.366 63.6134 87.5008L60.0109 85.4251C59.1187 84.9063 58.5698 83.9372 58.5698 82.8993V66.9493C58.5698 65.9114 59.1187 64.9423 60.0109 64.4235L73.7009 56.4311C74.5589 55.9468 75.7256 55.9468 76.5833 56.4311L90.2734 64.4235C91.1655 64.9423 91.7147 65.9114 91.7147 66.9493V82.8993C91.7147 83.9372 91.1655 84.9063 90.2734 85.4251L76.5833 93.4174C76.1371 93.6252 75.6226 93.7288 75.1423 93.7288H75.142ZM79.3624 82.761C73.3581 82.761 72.1228 79.9931 72.1228 77.6404C72.1228 77.4327 72.2944 77.2252 72.5345 77.2252H74.3187C74.5245 77.2252 74.6961 77.3635 74.6961 77.5713C74.9707 79.4049 75.7598 80.3045 79.3968 80.3045C82.2789 80.3045 83.5145 79.6471 83.5145 78.0901C83.5145 77.1905 83.171 76.5334 78.6763 76.0834C74.9363 75.7026 72.6031 74.8725 72.6031 71.8624C72.6031 69.0598 74.9365 67.3989 78.8479 67.3989C83.2395 67.3989 85.4014 68.9215 85.676 72.2426C85.676 72.3468 85.6416 72.4504 85.573 72.5542C85.5041 72.6234 85.4014 72.6926 85.2984 72.6926H83.5142C83.3426 72.6926 83.171 72.5542 83.1368 72.3812C82.7251 70.4785 81.6614 69.8555 78.8479 69.8555C75.6912 69.8555 75.3136 70.9628 75.3136 71.793C75.3136 72.7964 75.7598 73.1078 80.0143 73.6613C84.2347 74.2151 86.2249 75.0108 86.2249 77.9862C86.1905 81.031 83.7202 82.761 79.3624 82.761Z" fill="#539E43"/>
<path d="M32.6645 31.3469C32.6645 30.7242 32.3213 30.1356 31.7724 29.8243L17.2244 21.3823C16.9839 21.2437 16.7096 21.1745 16.4353 21.1398H16.2978C16.0235 21.1398 15.7489 21.2437 15.5087 21.3823L0.960652 29.8243C0.411433 30.1356 0.0685425 30.7239 0.0685425 31.3469L0.10298 54.0437C0.10298 54.355 0.274574 54.6663 0.548886 54.8049C0.823496 54.978 1.16639 54.978 1.40685 54.8049L10.0533 49.8226C10.6023 49.5113 10.9454 48.9231 10.9454 48.3004V37.6784C10.9454 37.0557 11.2883 36.4675 11.8376 36.1561L15.5087 34.0109C15.7833 33.8379 16.0921 33.7684 16.4008 33.7684C16.7096 33.7684 17.0183 33.8379 17.2588 34.0109L20.9299 36.1561C21.4792 36.4675 21.8221 37.0554 21.8221 37.6784V48.3004C21.8221 48.9231 22.1652 49.5113 22.7142 49.8226L31.3607 54.8049C31.6353 54.978 31.9782 54.978 32.2528 54.8049C32.5274 54.6663 32.699 54.355 32.699 54.0437L32.6645 31.3469Z" fill="#333333"/>
<path d="M102.591 0.103832C102.317 -0.0347733 101.974 -0.0347733 101.733 0.103832C101.459 0.276864 101.287 0.553475 101.287 0.864813V23.3545C101.287 23.5619 101.185 23.7694 100.979 23.908C100.773 24.0116 100.567 24.0116 100.361 23.908L96.7242 21.7975C96.4576 21.6444 96.156 21.5639 95.8492 21.5639C95.5424 21.5639 95.2408 21.6444 94.9742 21.7975L80.4261 30.2742C79.8772 30.5856 79.534 31.1738 79.534 31.7965V48.7153C79.534 49.338 79.8772 49.9265 80.4261 50.2379L94.9742 58.7146C95.2408 58.8677 95.5424 58.9482 95.8492 58.9482C96.156 58.9482 96.4576 58.8677 96.7242 58.7146L111.272 50.2379C111.821 49.9265 112.164 49.3383 112.164 48.7153V6.53924C112.164 5.88184 111.821 5.29389 111.272 4.98225L102.592 0.103832H102.591ZM101.253 43.145C101.253 43.3181 101.185 43.4564 101.047 43.5255L96.0723 46.4318C96.0028 46.4659 95.9265 46.4837 95.8492 46.4837C95.7719 46.4837 95.6956 46.4659 95.6261 46.4318L90.6511 43.5255C90.5136 43.4564 90.445 43.2834 90.445 43.145V37.3323C90.445 37.1593 90.5136 37.021 90.6511 36.9518L95.6261 34.0453C95.6956 34.0111 95.7719 33.9934 95.8492 33.9934C95.9265 33.9934 96.0028 34.0111 96.0723 34.0453L101.047 36.9518C101.185 37.0207 101.253 37.194 101.253 37.3323V43.145Z" fill="#333333"/>
<path d="M151.005 37.194C151.554 36.8826 151.863 36.2944 151.863 35.6714V31.5543C151.863 30.9316 151.52 30.3433 151.005 30.032L136.56 21.59C136.293 21.4369 135.992 21.3564 135.685 21.3564C135.378 21.3564 135.077 21.4369 134.81 21.59L120.262 30.0664C119.713 30.3778 119.37 30.966 119.37 31.589V48.5078C119.37 49.1305 119.713 49.7187 120.262 50.03L134.707 58.3338C135.256 58.6451 135.908 58.6451 136.423 58.3338L145.172 53.4212C145.446 53.2826 145.618 52.9713 145.618 52.6599C145.618 52.3486 145.446 52.0373 145.172 51.8987L130.555 43.4219C130.281 43.2492 130.109 42.9723 130.109 42.6609V37.3673C130.109 37.0559 130.281 36.7446 130.555 36.606L135.119 33.9764C135.252 33.8916 135.407 33.8466 135.565 33.8466C135.723 33.8466 135.877 33.8916 136.011 33.9764L140.574 36.606C140.849 36.779 141.02 37.0556 141.02 37.3673V41.5191C141.02 41.8305 141.192 42.1418 141.466 42.2801C141.741 42.4532 142.084 42.4532 142.358 42.2801L151.005 37.194V37.194Z" fill="#333333"/>
<path d="M135.462 36.3984C135.513 36.3646 135.572 36.3466 135.633 36.3466C135.694 36.3466 135.754 36.3646 135.805 36.3984L138.584 38.0245C138.687 38.0934 138.756 38.1972 138.756 38.3358V41.5881C138.756 41.7264 138.687 41.8303 138.584 41.8995L135.805 43.5256C135.754 43.5594 135.694 43.5774 135.633 43.5774C135.572 43.5774 135.513 43.5594 135.462 43.5256L132.683 41.8995C132.58 41.8303 132.511 41.7264 132.511 41.5881V38.3358C132.511 38.1972 132.58 38.0934 132.683 38.0245L135.462 36.3984V36.3984Z" fill="#539E43"/>
<mask id="mask0" mask-type="alpha" maskUnits="userSpaceOnUse" x="39" y="21" width="34" height="38">
<path d="M56.9914 21.6592C56.7248 21.5061 56.4233 21.4257 56.1165 21.4257C55.8097 21.4257 55.5082 21.5061 55.2416 21.6592L40.7966 30.0662C40.2473 30.3775 39.9386 30.9658 39.9386 31.5884V48.4384C39.9386 49.0611 40.2818 49.6493 40.7966 49.9607L55.2416 58.3683C55.5082 58.5213 55.8097 58.6018 56.1165 58.6018C56.4233 58.6018 56.7248 58.5213 56.9914 58.3683L71.4367 49.9607C71.9857 49.6493 72.2947 49.0611 72.2947 48.4384V31.5887C72.2947 30.9661 71.9512 30.3778 71.4367 30.0665L56.9914 21.6592Z" fill="white"/>
</mask>
<g mask="url(#mask0)">
<path d="M56.9914 21.6592C56.7248 21.5061 56.4233 21.4257 56.1165 21.4257C55.8097 21.4257 55.5082 21.5061 55.2416 21.6592L40.7966 30.0662C40.2473 30.3775 39.9386 30.9658 39.9386 31.5884V48.4384C39.9386 49.0611 40.2818 49.6493 40.7966 49.9607L55.2416 58.3683C55.5082 58.5213 55.8097 58.6018 56.1165 58.6018C56.4233 58.6018 56.7248 58.5213 56.9914 58.3683L71.4367 49.9607C71.9857 49.6493 72.2947 49.0611 72.2947 48.4384V31.5887C72.2947 30.9661 71.9512 30.3778 71.4367 30.0665L56.9914 21.6592Z" fill="url(#paint0_linear)"/>
<path d="M71.4708 30.0664L56.9572 21.6591C56.8146 21.5865 56.6651 21.5285 56.511 21.4861L40.2473 49.5807C40.382 49.7466 40.5447 49.8871 40.7279 49.9959L55.2415 58.4035C55.6533 58.6457 56.1336 58.7149 56.5795 58.5763L71.8484 30.4128C71.7454 30.2745 71.608 30.1703 71.4708 30.0667V30.0664Z" fill="url(#paint1_linear)"/>
<path fill-rule="evenodd" clip-rule="evenodd" d="M71.5053 49.961C71.917 49.7188 72.2258 49.3036 72.3632 48.8539L56.4421 21.4514C56.0304 21.3823 55.5841 21.4167 55.2071 21.6589L40.7962 30.0321L56.3391 58.6107C56.5651 58.5734 56.7847 58.5036 56.991 58.4033L71.505 49.9613L71.5053 49.961Z" fill="url(#paint2_linear)"/>
<path fill-rule="evenodd" clip-rule="evenodd" d="M71.5053 49.9609L57.0258 58.3685C56.8214 58.4736 56.6011 58.5437 56.3738 58.5759L56.6484 59.095L72.7061 49.719V49.5112L72.2943 48.8191C72.2258 49.3035 71.917 49.7187 71.5053 49.9609V49.9609Z" fill="url(#paint3_linear)"/>
<path fill-rule="evenodd" clip-rule="evenodd" d="M71.5053 49.9609L57.0258 58.3685C56.8214 58.4736 56.6011 58.5437 56.3738 58.5759L56.6484 59.095L72.7061 49.719V49.5112L72.2943 48.8191C72.2258 49.3035 71.917 49.7187 71.5053 49.9609V49.9609Z" fill="url(#paint4_linear)"/>
</g>
</g>
<defs>
<linearGradient id="paint0_linear" x1="62.0016" y1="27.9266" x2="45.9796" y2="52.8926" gradientUnits="userSpaceOnUse">
<stop stop-color="#41873F"/>
<stop offset="0.3288" stop-color="#418B3D"/>
<stop offset="0.6352" stop-color="#419637"/>
<stop offset="0.9319" stop-color="#3FA92D"/>
<stop offset="1" stop-color="#3FAE2A"/>
</linearGradient>
<linearGradient id="paint1_linear" x1="53.9233" y1="41.9874" x2="93.7269" y2="20.5416" gradientUnits="userSpaceOnUse">
<stop offset="0.1376" stop-color="#41873F"/>
<stop offset="0.4032" stop-color="#54A044"/>
<stop offset="0.7136" stop-color="#66B848"/>
<stop offset="0.9081" stop-color="#6CC04A"/>
</linearGradient>
<linearGradient id="paint2_linear" x1="39.4107" y1="40.0142" x2="72.8364" y2="40.0142" gradientUnits="userSpaceOnUse">
<stop offset="0.09192" stop-color="#6CC04A"/>
<stop offset="0.2864" stop-color="#66B848"/>
<stop offset="0.5968" stop-color="#54A044"/>
<stop offset="0.8624" stop-color="#41873F"/>
</linearGradient>
<linearGradient id="paint3_linear" x1="39.411" y1="53.9853" x2="72.8363" y2="53.9853" gradientUnits="userSpaceOnUse">
<stop offset="0.09192" stop-color="#6CC04A"/>
<stop offset="0.2864" stop-color="#66B848"/>
<stop offset="0.5968" stop-color="#54A044"/>
<stop offset="0.8624" stop-color="#41873F"/>
</linearGradient>
<linearGradient id="paint4_linear" x1="77.7059" y1="27.1298" x2="69.1005" y2="71.847" gradientUnits="userSpaceOnUse">
<stop stop-color="#41873F"/>
<stop offset="0.3288" stop-color="#418B3D"/>
<stop offset="0.6352" stop-color="#419637"/>
<stop offset="0.9319" stop-color="#3FA92D"/>
<stop offset="1" stop-color="#3FAE2A"/>
</linearGradient>
<clipPath id="clip0">
<rect width="152" height="94" fill="white"/>
</clipPath>
</defs>
</svg>
