<svg width="80" height="80" viewBox="0 0 121 120" fill="none" xmlns="http://www.w3.org/2000/svg">
<g clip-path="url(#clip0)">
<path d="M120.261 71.8572C119.537 69.7441 117.641 68.2722 115.188 67.9191C114.032 67.7527 112.708 67.8236 111.141 68.135C108.409 68.6782 106.383 68.885 104.904 68.925C110.486 59.8409 115.025 49.4818 117.638 39.7304C121.864 23.9627 119.606 16.7795 116.967 13.5304C109.984 4.93044 99.7963 0.310436 87.5056 0.169072C80.949 0.0917993 75.1931 1.33953 72.1905 2.2368C69.3949 1.76134 66.3889 1.49589 63.2349 1.4468C57.3225 1.35589 52.0986 2.59816 47.635 5.15134C45.1638 4.34589 41.1977 3.21044 36.6175 2.48589C25.8454 0.781345 17.1633 2.10953 10.8128 6.43362C3.12292 11.6691 -0.44187 20.7654 0.217421 33.47C0.42681 37.5036 2.76781 49.7763 6.4538 61.4154C8.57221 68.1054 10.8312 73.6609 13.1679 77.9291C16.4818 83.9813 20.0277 87.5454 24.0085 88.8254C26.2396 89.5418 30.2934 90.0436 34.5571 86.6209C35.0976 87.2518 35.8187 87.8786 36.7755 88.4609C37.9908 89.1995 39.4768 89.8032 40.9609 90.1609C46.3093 91.4495 51.3191 91.1273 55.5931 89.3209C55.6196 90.0536 55.6398 90.7536 55.6568 91.3582C55.6851 92.3386 55.7134 93.3 55.7507 94.1991C56.0039 100.278 56.4331 105.005 57.7045 108.312C57.7743 108.494 57.8681 108.771 57.9672 109.065C58.6015 110.937 59.6621 114.071 62.3605 116.525C65.1547 119.067 68.5347 119.847 71.6302 119.847C73.1827 119.847 74.664 119.65 75.9632 119.382C80.5943 118.425 85.854 116.968 89.6589 111.746C93.2562 106.81 95.0049 99.375 95.3213 87.66C95.3624 87.3286 95.4001 87.0123 95.4364 86.7109L95.5118 86.0918L96.3593 86.1636L96.5777 86.1777C101.295 86.385 107.062 85.4209 110.604 83.835C113.403 82.5832 122.373 78.0191 120.261 71.8572Z" fill="black"/>
<path d="M112.195 73.0556C98.1702 75.8442 97.2057 71.2674 97.2057 71.2674C112.014 50.0888 118.204 23.2056 112.863 16.6261C98.2885 -1.32167 73.0605 7.16651 72.6394 7.38651L72.504 7.41014C69.7329 6.8556 66.6322 6.5256 63.1466 6.4706C56.8008 6.3706 51.9868 8.07423 48.3338 10.7442C48.3338 10.7442 3.32941 -7.12577 5.42282 33.2188C5.86801 41.8015 18.1861 98.1611 32.8782 81.1379C38.2482 74.9129 43.4372 69.6497 43.4372 69.6497C46.014 71.2997 49.0992 72.1415 52.3334 71.8392L52.5848 71.6338C52.5065 72.4065 52.5423 73.1624 52.6852 74.0574C48.9002 78.1333 50.0127 78.8488 42.4464 80.3501C34.79 81.8711 39.2877 84.5783 42.2243 85.2865C45.7844 86.1442 54.0203 87.3597 59.5851 79.8511L59.3635 80.7079C60.8462 81.8529 61.8875 88.1547 61.713 93.8679C61.5385 99.5806 61.422 103.503 62.5901 106.567C63.7592 109.63 64.9236 116.523 74.8705 114.469C83.1814 112.752 87.4885 108.304 88.0879 100.883C88.5128 95.6074 89.4753 96.3874 89.5357 91.6706L90.3077 89.4379C91.1976 82.2865 90.4492 79.9792 95.5693 81.0524L96.8143 81.1579C100.582 81.3229 105.515 80.5733 108.41 79.2765C114.644 76.4883 118.341 71.8324 112.194 73.0556H112.195Z" fill="#336791"/>
<path d="M50.9682 37.0567C49.7043 36.8871 48.5598 37.0439 47.9807 37.4667C47.6553 37.7044 47.5543 37.9798 47.527 38.1694C47.4544 38.6717 47.8194 39.2271 48.0438 39.5135C48.6786 40.3244 49.6058 40.8817 50.5235 41.0044C50.6565 41.0226 50.789 41.0307 50.9206 41.0307C52.4509 41.0307 53.8426 39.8821 53.9652 39.0344C54.1185 37.9726 52.5193 37.2648 50.9682 37.0571" fill="white"/>
<path d="M92.8383 37.0904C92.7176 36.2581 91.1811 36.0209 89.7229 36.2163C88.2667 36.4118 86.8547 37.0454 86.9726 37.8795C87.0669 38.5281 88.2822 39.6354 89.7206 39.6354C89.8423 39.6354 89.9649 39.6277 90.0884 39.6108C91.0486 39.4827 91.7532 38.8949 92.088 38.5563C92.5973 38.0399 92.8925 37.4645 92.8383 37.0904Z" fill="white"/>
<path d="M116.862 72.7387C116.328 71.1801 114.606 70.6787 111.747 71.2478C103.255 72.9369 100.215 71.7669 99.2162 71.0582C105.816 61.3673 111.246 49.6528 114.175 38.7232C115.562 33.546 116.329 28.7378 116.391 24.8187C116.461 20.5173 115.7 17.3564 114.133 15.4255C107.812 7.64143 98.5362 3.46597 87.3075 3.35143C79.5879 3.26779 73.0658 5.17188 71.8014 5.70733C69.1388 5.06915 66.2361 4.67734 63.0759 4.62734C57.281 4.53688 52.2717 5.87415 48.1245 8.60006C46.323 7.9537 41.6674 6.41324 35.9738 5.52915C26.1307 4.00188 18.3088 5.15915 12.727 8.97052C6.06661 13.5187 2.9918 21.6487 3.58743 33.1341C3.78786 36.9982 6.07227 48.8855 9.67715 60.2696C14.4223 75.2532 19.5807 83.7355 25.0078 85.4805C25.643 85.6846 26.3754 85.8273 27.1833 85.8273C29.163 85.8273 31.5903 84.9673 34.1157 82.041C37.196 78.4794 40.3823 75.0043 43.6707 71.6201C45.8042 72.7237 48.1481 73.3401 50.5452 73.4019C50.5499 73.4623 50.556 73.5228 50.5617 73.5828C50.149 74.0571 49.745 74.5382 49.3497 75.026C47.6887 77.0582 47.343 77.4814 41.9966 78.5423C40.4757 78.8451 36.4364 79.6473 36.377 82.3764C36.3129 85.3582 41.1519 86.6105 41.7032 86.7432C43.6245 87.2069 45.4755 87.4355 47.2407 87.4355C51.5336 87.4355 55.3116 86.0755 58.3307 83.4441C58.2378 94.0742 58.6977 104.549 60.0219 107.74C61.1066 110.353 63.756 116.738 72.1249 116.737C73.353 116.737 74.7046 116.6 76.1915 116.292C84.9259 114.488 88.719 110.767 90.1861 102.564C90.9713 98.1796 92.3187 87.711 92.9525 82.0955C94.2899 82.4978 96.0117 82.6819 97.8731 82.6814C101.755 82.6814 106.235 81.8864 109.044 80.6296C112.2 79.2169 117.895 75.7505 116.862 72.7387ZM96.0622 34.7932C96.0334 36.451 95.7967 37.956 95.5458 39.5269C95.2756 41.2164 94.9964 42.9632 94.9261 45.0837C94.8568 47.1473 95.1242 49.2928 95.3826 51.3678C95.9052 55.5587 96.4414 59.8732 94.3659 64.1305C94.0211 63.5417 93.714 62.9332 93.4463 62.3082C93.1883 61.7055 92.628 60.7373 91.8522 59.3973C88.8345 54.181 81.7676 41.9655 85.3853 36.981C86.4629 35.4973 89.1976 33.9719 96.0622 34.7932ZM87.7414 6.70824C97.8024 6.92234 105.761 10.5501 111.396 17.4901C115.717 22.8132 110.958 47.0346 97.1818 67.9305C97.0432 67.7607 96.9039 67.5915 96.7639 67.4228L96.5894 67.2128C100.15 61.546 99.4534 55.9391 98.8338 50.9682C98.5791 48.9282 98.3386 47.0014 98.3999 45.1914C98.4631 43.2732 98.7262 41.6278 98.9809 40.0369C99.2936 38.0764 99.6119 36.0478 99.5242 33.6564C99.5897 33.4055 99.6161 33.1092 99.5817 32.7573C99.3577 30.4642 96.6413 23.601 91.1048 17.3892C88.0762 13.9914 83.6597 10.1892 77.6294 7.62461C80.2232 7.10643 83.77 6.62324 87.7414 6.70824ZM31.4432 79.8991C28.6608 83.1237 26.7395 82.5055 26.1075 82.3028C21.9905 80.9791 17.2132 72.5919 13.0014 59.2919C9.35693 47.7837 7.22721 36.2114 7.05838 32.9664C6.52642 22.7037 9.10746 15.5514 14.7303 11.7078C23.8811 5.45324 38.926 9.19688 44.9714 11.0955C44.8846 11.1782 44.7941 11.2555 44.7082 11.3396C34.7877 20.996 35.0231 37.4942 35.0476 38.5028C35.0466 38.8919 35.0806 39.4428 35.1268 40.2005C35.2975 42.9755 35.6154 48.1401 34.7665 53.9887C33.978 59.4237 35.7163 64.7432 39.5348 68.5837C39.9267 68.9771 40.3386 69.3515 40.769 69.7055C39.0694 71.4601 35.3754 75.3401 31.4432 79.8991ZM42.0442 66.266C38.9666 63.1705 37.5687 58.8651 38.2087 54.4523C39.1047 48.2742 38.7741 42.8932 38.5964 40.0023C38.5714 39.5978 38.5492 39.2432 38.5365 38.9637C39.9857 37.7251 46.7017 34.2569 51.4912 35.3146C53.6766 35.7969 55.0084 37.2314 55.562 39.6987C58.4274 52.4728 55.9412 57.7969 53.9435 62.0755C53.5318 62.9569 53.1427 63.7901 52.8107 64.6519L52.5532 65.3182C51.9015 67.0028 51.295 68.5691 50.9191 70.0564C47.6472 70.0473 44.4644 68.7001 42.0442 66.2655V66.266ZM42.5464 83.4932C41.591 83.2632 40.7317 82.8637 40.2276 82.5323C40.6487 82.3414 41.3981 82.0814 42.6978 81.8232C48.9875 80.5755 49.959 79.6946 52.0802 77.0987C52.5664 76.5032 53.1177 75.8287 53.8812 75.0069L53.8822 75.006C55.0192 73.7787 55.5394 73.9869 56.4826 74.3642C57.247 74.6687 57.9917 75.5923 58.2935 76.6087C58.4364 77.0887 58.5967 77.9996 58.0718 78.7087C53.6407 84.6887 47.1836 84.6119 42.5464 83.4932ZM75.4634 113.017C67.7688 114.606 65.0444 110.822 63.249 106.496C62.0903 103.703 61.5206 91.1096 61.9248 77.2019C61.93 77.0169 61.9026 76.8382 61.8498 76.6701C61.8025 76.338 61.7307 76.0095 61.6348 75.6873C61.0339 73.6637 59.5696 71.971 57.8129 71.2691C57.115 70.9905 55.8341 70.4792 54.2948 70.8587C54.6231 69.5551 55.1923 68.0828 55.8096 66.4887L56.0685 65.8182C56.36 65.0623 56.7259 64.2791 57.1126 63.4501C59.2032 58.9737 62.0663 52.8423 58.9589 38.991C57.795 33.8028 53.9081 31.2692 48.016 31.8578C44.4838 32.2101 41.2519 33.5837 39.64 34.3714C39.2934 34.5405 38.9765 34.7041 38.6803 34.8632C39.1302 29.636 40.8298 19.8669 47.1879 13.686C51.1913 9.79506 56.5227 7.87324 63.0184 7.97688C75.8175 8.1787 84.0252 14.5096 88.6572 19.7855C92.6488 24.3314 94.8101 28.911 95.6727 31.381C89.1859 30.7451 84.7741 31.9792 82.5378 35.061C77.6723 41.7646 85.1994 54.7755 88.8171 61.0287C89.4806 62.1746 90.0531 63.1651 90.2333 63.586C91.4113 66.3378 92.9365 68.1751 94.0499 69.516C94.3913 69.9269 94.7224 70.3255 94.9742 70.6737C93.0096 71.2196 89.4806 72.481 89.8022 78.786C89.5428 81.9496 87.6984 96.7614 86.7614 101.995C85.5244 108.908 82.8849 111.483 75.4634 113.017V113.017ZM107.581 77.5914C105.572 78.4901 102.21 79.1641 99.0163 79.3092C95.4887 79.4682 93.6929 78.9282 93.2703 78.596C93.0723 74.6669 94.5894 74.2564 96.1952 73.8219C96.4475 73.7537 96.6937 73.6869 96.9313 73.6069C97.0789 73.7228 97.2407 73.8378 97.418 73.9505C100.253 75.7542 105.31 75.9487 112.45 74.5282L112.528 74.5132C111.565 75.381 109.917 76.5455 107.581 77.5914Z" fill="white"/>
</g>
<defs>
<clipPath id="clip0">
<rect width="120.729" height="120" fill="white"/>
</clipPath>
</defs>
</svg>
