<svg width="81" height="80" viewBox="0 0 121 120" fill="none" xmlns="http://www.w3.org/2000/svg">
<g clip-path="url(#clip0)">
<path d="M21.6863 116.57L0 117.295L11.1169 106.401L21.6873 116.571L21.6863 116.57Z" fill="#F15A24"/>
<path d="M120.059 62.5364C116.03 92.815 87.2947 114.207 55.8855 110.32C24.4706 106.436 2.27591 78.74 6.30523 48.4637C10.3369 18.1855 39.066 -3.20907 70.4833 0.679117C101.896 4.56184 124.096 32.26 120.059 62.5355" fill="#F15A24"/>
<path d="M77.8048 39.7874C81.5729 43.6483 77.8539 52.7769 77.8539 52.7769C77.8539 52.7769 74.1783 65.6828 53.1324 82.4192L49.204 78.7024L75.9199 52.3847L76.4363 51.7128C77.147 50.5965 77.7355 39.7124 77.8048 39.7874Z" fill="#999999"/>
<path d="M77.8048 39.7874C81.5729 43.6483 77.8539 52.7769 77.8539 52.7769C77.8539 52.7769 74.1783 65.6828 53.1324 82.4192L49.204 78.7024L75.9199 52.3847L76.4363 51.7128C77.147 50.5965 77.7355 39.7124 77.8048 39.7874V39.7874Z" stroke="white" stroke-width="1.918" stroke-linecap="round" stroke-linejoin="round"/>
<path d="M43.434 73.2309L77.7487 39.6923C79.4903 41.6854 79.861 43.8332 79.3554 46.8932C79.0149 49.0127 75.2172 53.2482 75.2172 53.2482L49.2039 78.7027" fill="#666666"/>
<path d="M43.434 73.2309L77.7487 39.6923C79.4903 41.6854 79.861 43.8332 79.3554 46.8932C79.0149 49.0127 75.2172 53.2482 75.2172 53.2482L49.2039 78.7027" stroke="white" stroke-width="1.201" stroke-linecap="round" stroke-linejoin="round"/>
<path d="M77.8049 39.8105L43.4336 73.2319L43.5029 73.1669L43.4901 73.1719L34.9623 65.0728C52.7452 43.7523 64.2432 39.7773 64.2432 39.7773C64.2432 39.7773 71.7284 36.961 77.0682 39.1464C77.4785 39.3582 77.6568 39.48 77.8039 39.8114" fill="#FF931E"/>
<path d="M77.8049 39.8105L43.4336 73.2319L43.5029 73.1669L43.4901 73.1719L34.9623 65.0728C52.7452 43.7523 64.2432 39.7773 64.2432 39.7773C64.2432 39.7773 71.7284 36.961 77.0682 39.1464C77.4785 39.3582 77.6568 39.48 77.8039 39.8114L77.8049 39.8105V39.8105Z" stroke="white" stroke-width="1.918" stroke-linecap="round" stroke-linejoin="round"/>
<path d="M53.1323 82.4182C44.9322 88.9273 34.4378 99.1528 20.173 106.285L23.3459 119.358L9.89783 106.591L43.433 73.231" fill="#999999"/>
<path d="M53.1323 82.4182C44.9322 88.9273 34.4378 99.1528 20.173 106.285L23.3459 119.358L9.89783 106.591L43.433 73.231" stroke="white" stroke-width="1.918" stroke-linecap="round" stroke-linejoin="round"/>
<path d="M35.1919 65.1818L43.5227 73.18L24.2769 77.1982L35.0076 65.0377L35.1929 65.1823L35.1919 65.1818Z" fill="#F15A24"/>
<path d="M35.1919 65.1818L43.5227 73.18L24.2769 77.1982L35.0076 65.0377L35.1929 65.1823L35.1919 65.1818Z" stroke="white" stroke-width="1.918" stroke-linecap="round" stroke-linejoin="round"/>
<path d="M74.5234 30.1119C73.7062 37.2214 79.0168 43.6214 86.3926 44.4142C93.7627 45.2037 100.409 40.081 101.231 32.9742C102.051 25.8674 96.7323 19.4605 89.3594 18.6705C81.9827 17.8851 75.3416 23.001 74.5234 30.1119Z" fill="#999999"/>
<path d="M74.5234 30.1119C73.7062 37.2214 79.0168 43.6214 86.3926 44.4142C93.7627 45.2037 100.409 40.081 101.231 32.9742C102.051 25.8674 96.7323 19.4605 89.3594 18.6705C81.9827 17.8851 75.3416 23.001 74.5234 30.1119V30.1119Z" stroke="white" stroke-width="1.918" stroke-linecap="round" stroke-linejoin="round"/>
<path d="M99.3015 38.6991C101.78 35.2086 101.652 29.9868 101.154 28.44C100.544 26.5455 99.178 23.465 96.7955 21.8636L84.1973 33.0482C84.1973 33.0482 93.8791 43.075 94.1314 43.1082C94.2361 43.12 97.0412 41.8818 99.3015 38.6991Z" fill="#666666"/>
<path d="M99.3015 38.6991C101.78 35.2086 101.652 29.9868 101.154 28.44C100.544 26.5455 99.178 23.465 96.7955 21.8636L84.1973 33.0482C84.1973 33.0482 93.8791 43.075 94.1314 43.1082C94.2361 43.12 97.0412 41.8818 99.3015 38.6991V38.6991ZM96.7596 29.9377C96.7596 29.9377 97.9712 32.8046 96.4342 35.035L96.7596 29.9377Z" stroke="white" stroke-width="1.918" stroke-linecap="round" stroke-linejoin="round"/>
<path d="M49.5005 78.7073L35.5969 81.0923L43.9894 72.6877" fill="#666666"/>
<path d="M35.5149 65.2405L53.1903 81.2741M49.5005 78.7073L35.597 81.0923L43.9895 72.6877L49.5005 78.7073Z" stroke="white" stroke-width="1.918" stroke-linecap="round" stroke-linejoin="round"/>
</g>
<defs>
<clipPath id="clip0">
<rect width="120.729" height="120" fill="white"/>
</clipPath>
</defs>
</svg>
