<svg width="25" height="17" viewBox="0 0 25 17" fill="none" xmlns="http://www.w3.org/2000/svg">
<path d="M21.0938 0.207642H3.90625C1.31758 0.207642 0 2.06276 0 4.35106V8.49447H25V4.35106C25 2.06276 23.6824 0.207642 21.0938 0.207642Z" fill="#27AAE1"/>
<path d="M0 12.6378C0 14.9261 1.31758 16.7812 3.90625 16.7812H21.0938C23.6824 16.7812 25 14.9261 25 12.6378V12.2611H0V12.6378Z" fill="#128807"/>
<path fill-rule="evenodd" clip-rule="evenodd" d="M19.4414 3.02507L19.0297 1.08482C19.0262 1.06787 19.0242 1.0513 19.0215 1.0351C19.027 1.02983 19.032 1.02983 19.0355 1.03585L19.6883 2.93806C19.6924 2.93677 19.6968 2.93613 19.7012 2.93618C19.7422 2.27888 19.7824 1.62158 19.8238 0.963156C19.8273 0.953362 19.8316 0.953362 19.8359 0.963156C19.8566 1.27015 19.8762 1.57601 19.8957 1.88262C19.9176 2.22765 19.9375 2.57193 19.9586 2.91659C19.9656 2.91847 19.9715 2.92036 19.9777 2.92111C20.1875 2.31278 20.398 1.70445 20.607 1.09537C20.6359 1.09537 20.6262 1.10968 20.6207 1.124C20.5535 1.44878 20.4851 1.77335 20.4156 2.0977C20.3539 2.38812 20.2891 2.67928 20.2266 2.96895C20.2117 2.99004 20.2344 3.02018 20.209 3.03788C20.177 3.05709 20.1457 3.04692 20.1152 3.03863C19.9276 2.98421 19.7275 2.98421 19.5398 3.03863C19.5148 3.04541 19.4875 3.0537 19.4598 3.04278C19.452 3.0391 19.4456 3.03318 19.4414 3.02583" fill="#E4BD01"/>
<path fill-rule="evenodd" clip-rule="evenodd" d="M18.993 4.53687C18.4195 4.81485 17.8476 5.09359 17.2762 5.37045C17.2558 5.38006 17.2351 5.38898 17.214 5.39719C17.1972 5.4051 17.1965 5.39644 17.1992 5.38363L18.8543 4.33196C18.8551 4.30521 18.839 4.31275 18.8234 4.31877C18.3699 4.40842 17.9164 4.4992 17.4613 4.58734C17.248 4.63028 17.034 4.67134 16.8203 4.71315C16.8172 4.70976 16.8152 4.70637 16.818 4.70487L16.8203 4.70072C17.4652 4.49506 18.1109 4.28939 18.7543 4.08373C18.7711 4.07846 18.7887 4.07544 18.8051 4.07205C18.8297 4.06038 18.8418 4.07808 18.8582 4.09051C18.8848 4.12403 18.8887 4.16547 18.9008 4.20427C18.9254 4.28374 18.9601 4.35682 19.0058 4.42613C19.0215 4.44986 19.0371 4.47509 19.0355 4.50523C19.0324 4.52934 19.0129 4.53423 18.993 4.53687" fill="#E4BD01"/>
<path fill-rule="evenodd" clip-rule="evenodd" d="M20.8164 3.5525C21.1539 3.48357 21.4922 3.41501 21.8305 3.34759C22.1102 3.29146 22.3903 3.23647 22.6692 3.18072C22.6938 3.17582 22.718 3.17319 22.743 3.17017C22.7606 3.16302 22.7629 3.17168 22.7606 3.18524C22.1539 3.37923 21.5488 3.57359 20.9426 3.76833L20.8922 3.78453C20.8828 3.80035 20.8977 3.80374 20.907 3.80939C21.55 3.84555 22.1918 3.88058 22.8356 3.91599C22.8668 3.93784 22.9141 3.8949 22.9395 3.9401L21.0336 4.04557C21.0086 4.04632 20.9836 4.04632 20.9586 4.04557C20.9172 4.05724 20.8762 4.04971 20.8344 4.05159C20.8031 4.03464 20.7996 4.00488 20.8004 3.97739C20.8042 3.86198 20.7887 3.74673 20.7543 3.63612C20.7505 3.62589 20.7488 3.61501 20.7494 3.60413C20.75 3.59326 20.7529 3.58262 20.7578 3.57284C20.7695 3.54723 20.7973 3.56079 20.8164 3.5525" fill="#E4BD01"/>
<path fill-rule="evenodd" clip-rule="evenodd" d="M17.2304 2.47148L18.2304 2.9525L18.9488 3.29979C18.9663 3.30808 18.9831 3.32088 19.005 3.3141C19.0261 3.30431 19.0452 3.2964 19.0593 3.32314C19.0175 3.41995 18.9788 3.51901 18.8909 3.58757C18.8663 3.59021 18.8468 3.58343 18.8347 3.56007C18.8304 3.54764 18.848 3.53634 18.839 3.52203C18.3238 3.19394 17.8081 2.86662 17.2937 2.53853C17.2663 2.52158 17.2398 2.50313 17.2132 2.48542C17.2109 2.47224 17.2128 2.46282 17.2304 2.47148" fill="#E4BD01"/>
<path fill-rule="evenodd" clip-rule="evenodd" d="M19.7148 5.02395C19.7094 4.99118 19.7043 4.95916 19.6957 4.91095C19.4789 5.54338 19.2652 6.16 19.0527 6.77699C19.0394 6.77963 19.0305 6.77774 19.0387 6.76079C19.1059 6.43723 19.1738 6.11291 19.2426 5.78897C19.3051 5.4978 19.3676 5.20739 19.4285 4.91622C19.434 4.89249 19.4555 4.8665 19.432 4.84239C19.4299 4.83855 19.4294 4.8341 19.4306 4.82992C19.4318 4.82574 19.4345 4.82212 19.4383 4.81979C19.5266 4.79229 19.5988 4.85218 19.6816 4.86047C19.7098 4.86235 19.7309 4.88081 19.7394 4.90944C19.75 4.95163 19.7621 4.99381 19.7148 5.02395" fill="#E4BD01"/>
<path fill-rule="evenodd" clip-rule="evenodd" d="M20.4688 4.74275C20.659 5.10887 20.8465 5.47349 21.0352 5.83736L21.3453 6.44004C21.3535 6.45737 21.3434 6.45812 21.3305 6.45737L20.2473 4.8727C20.2457 4.86931 20.2449 4.86441 20.243 4.85951C20.2274 4.85349 20.2184 4.84332 20.2184 4.82599C20.2813 4.74727 20.3668 4.70244 20.4653 4.67871C20.4926 4.6983 20.4844 4.72015 20.4688 4.74275" fill="#E4BD01"/>
<path fill-rule="evenodd" clip-rule="evenodd" d="M20.832 4.0459C20.8734 4.0459 20.9156 4.04665 20.957 4.04741C20.9249 4.05268 20.8937 4.05644 20.8484 4.06511L22.789 4.687C22.7925 4.70056 22.7902 4.70809 22.7734 4.70131L21.48 4.44593C21.2632 4.40336 21.0484 4.36117 20.832 4.31936C20.805 4.30919 20.7847 4.34234 20.7577 4.32916C20.7513 4.32513 20.7463 4.31937 20.7433 4.31258C20.7534 4.21729 20.7589 4.12048 20.832 4.0459" fill="#E4BD01"/>
<path fill-rule="evenodd" clip-rule="evenodd" d="M20.4688 3.1348C20.647 2.99882 20.8083 2.84815 20.979 2.70464C21.3021 2.42966 21.6247 2.15243 21.9481 1.87746C21.963 1.87294 21.9673 1.87897 21.9649 1.89253C21.5331 2.36284 21.1008 2.83281 20.6681 3.30242C20.6817 3.32427 20.6782 3.34423 20.6599 3.36193C20.6505 3.36721 20.6388 3.37022 20.6313 3.36457C20.5532 3.30054 20.4681 3.24102 20.4185 3.14987C20.4286 3.12275 20.4454 3.1171 20.4688 3.1348" fill="#E4BD01"/>
<path fill-rule="evenodd" clip-rule="evenodd" d="M19.0509 3.3168C19.036 3.31755 19.0204 3.32923 19.0063 3.31492L17.8997 2.11144C17.8192 2.02443 17.7419 1.93704 17.661 1.85079C17.668 1.8425 17.6759 1.8425 17.6841 1.84702C18.1118 2.2139 18.5399 2.57927 18.9665 2.94502C19.0403 3.00831 19.1145 3.06744 19.1876 3.12884C19.2137 3.12168 19.2235 3.13637 19.2294 3.15634C19.1911 3.23243 19.1423 3.29646 19.0509 3.3168" fill="#E4BD01"/>
<path fill-rule="evenodd" clip-rule="evenodd" d="M20.2279 4.82871L20.2435 4.85922C20.213 4.87354 20.2314 4.89727 20.2349 4.91459C20.3607 5.50597 20.4876 6.09622 20.615 6.6876C20.6185 6.70718 20.6212 6.72677 20.6228 6.7456C20.631 6.76067 20.6212 6.76406 20.6076 6.76255L20.0033 5.00876L19.9849 4.96055C19.9771 4.93644 19.9466 4.92966 19.938 4.90518C19.9361 4.89764 19.938 4.89011 19.9415 4.88333C20.0173 4.83624 20.106 4.8321 20.1896 4.81176C20.2033 4.80799 20.2193 4.81553 20.2279 4.82871" fill="#E4BD01"/>
<path fill-rule="evenodd" clip-rule="evenodd" d="M19.2189 3.15894C19.2087 3.14915 19.1989 3.1386 19.1884 3.12881C19.1958 3.09942 19.1755 3.07833 19.1638 3.05498C18.8837 2.51596 18.6028 1.97656 18.3224 1.43829C18.3138 1.42059 18.3067 1.40288 18.2978 1.3848C18.2892 1.36974 18.2985 1.36974 18.3107 1.37049C18.6677 1.89256 19.0224 2.41425 19.379 2.93482C19.3993 2.96495 19.4208 2.99433 19.4419 3.02522L19.4595 3.02673C19.4603 3.02936 19.463 3.032 19.4618 3.03351C19.4329 3.08775 19.2829 3.16308 19.2189 3.15894Z" fill="#E4BD01"/>
<path fill-rule="evenodd" clip-rule="evenodd" d="M19.4306 4.82571L19.4298 4.84228C19.4087 4.87505 19.3896 4.90895 19.3689 4.94059L18.3118 6.48571C18.2989 6.49023 18.2907 6.48835 18.2989 6.47253L19.1833 4.77071C19.1841 4.76619 19.1868 4.7613 19.1876 4.75715C19.1989 4.7387 19.1794 4.71798 19.195 4.70103C19.1992 4.69516 19.2052 4.69079 19.2122 4.6886C19.3013 4.71045 19.3837 4.74246 19.4306 4.82571" fill="#E4BD01"/>
<path fill-rule="evenodd" clip-rule="evenodd" d="M20.4688 3.13485C20.4542 3.13819 20.4395 3.14096 20.4246 3.14314C20.3453 3.15067 20.2356 3.0889 20.2164 3.02675C20.2164 3.00603 20.2133 2.98531 20.2293 2.96836C20.2301 2.9774 20.2301 2.98795 20.2336 3.01206L21.3477 1.38407C21.3606 1.38143 21.368 1.38332 21.3614 1.39725C21.0778 1.94607 20.793 2.49413 20.5082 3.04181C20.4922 3.07232 20.4688 3.09944 20.4688 3.13485" fill="#E4BD01"/>
<path fill-rule="evenodd" clip-rule="evenodd" d="M20.6507 3.36267C20.655 3.34271 20.6601 3.32274 20.6655 3.3024C20.7015 3.30993 20.7292 3.29223 20.7577 3.27792C21.3062 3.01236 21.8546 2.74718 22.4046 2.48276C22.4218 2.47259 22.4413 2.46731 22.4597 2.45978C22.4745 2.45074 22.4733 2.45978 22.4733 2.46957C22.0056 2.76822 21.5375 3.06629 21.069 3.3638C20.9831 3.41842 20.8976 3.47341 20.8112 3.52728C20.7917 3.53895 20.7831 3.54875 20.8163 3.55251C20.8026 3.56344 20.787 3.56419 20.7702 3.56494C20.7065 3.5431 20.6437 3.43876 20.6507 3.36267" fill="#E4BD01"/>
<path fill-rule="evenodd" clip-rule="evenodd" d="M20.4688 4.74291C20.4578 4.72445 20.4661 4.70486 20.4688 4.6849C20.4735 4.61823 20.5653 4.52745 20.645 4.5105C20.6668 4.51803 20.6809 4.52971 20.6653 4.55495C20.8719 4.78095 21.0797 5.00733 21.2864 5.23446C21.5175 5.4865 21.7482 5.73887 21.9785 5.99158C21.9856 5.99911 21.984 6.00589 21.9758 6.01192C21.6172 5.70681 21.2598 5.40171 20.9012 5.09585C20.7785 4.98963 20.6551 4.8834 20.5313 4.77794C20.5145 4.76249 20.5004 4.73801 20.4688 4.74404" fill="#E4BD01"/>
<path fill-rule="evenodd" clip-rule="evenodd" d="M19.2031 4.69467C19.2024 4.69994 19.2016 4.70446 19.2016 4.70974C19.1996 4.72744 19.1856 4.73385 19.1711 4.74176C18.7043 5.14065 18.2387 5.54068 17.7719 5.94033C17.7453 5.96331 17.7188 5.98403 17.6918 6.00587C17.6774 6.0104 17.6731 6.00512 17.6774 5.99156C18.1054 5.52902 18.5321 5.06533 18.9574 4.6005C18.9719 4.58506 19.0156 4.57527 18.9914 4.53722L19.0199 4.51123C19.0906 4.52253 19.191 4.62386 19.2031 4.69467" fill="#E4BD01"/>
<path fill-rule="evenodd" clip-rule="evenodd" d="M18.84 4.1021L18.8068 4.07197C18.7623 4.04259 18.7111 4.05163 18.6631 4.04824C18.0345 4.01057 17.406 3.97554 16.7787 3.94013C16.7908 3.89719 16.8314 3.93411 16.8533 3.91603C17.4865 3.88137 18.1185 3.84521 18.7517 3.80943C18.8146 3.77666 18.8443 3.80604 18.8595 3.86404C18.8638 3.92205 18.8564 3.98194 18.8674 4.04108C18.8703 4.05274 18.8693 4.06501 18.8643 4.07603C18.8594 4.08704 18.8509 4.0962 18.84 4.1021" fill="#E4BD01"/>
<path fill-rule="evenodd" clip-rule="evenodd" d="M20.6656 4.55437C20.6637 4.53667 20.6535 4.52687 20.6351 4.5231C20.6215 4.45832 20.6918 4.34343 20.7574 4.32121C20.7637 4.32008 20.7687 4.32008 20.775 4.31932C20.7969 4.30765 20.8062 4.32008 20.8164 4.33439C21.3617 4.68281 21.9094 5.03048 22.4551 5.37702L22.5195 5.41883C22.4848 5.43051 22.4637 5.40829 22.4422 5.39623C21.875 5.1239 21.3094 4.85043 20.7422 4.57622C20.7187 4.56454 20.6969 4.54533 20.6656 4.55437" fill="#E4BD01"/>
<path fill-rule="evenodd" clip-rule="evenodd" d="M18.8398 3.5524L18.8875 3.58253C18.925 3.6639 18.8812 3.73132 18.8465 3.80101C18.8156 3.81155 18.7894 3.80251 18.7641 3.78406C18.1605 3.58931 17.5562 3.39646 16.9523 3.20247C16.9333 3.19644 16.9144 3.18991 16.8957 3.18288C16.8945 3.1697 16.8984 3.16254 16.9141 3.1697C17.132 3.21189 17.3508 3.25257 17.5691 3.29513C17.9816 3.37536 18.393 3.45635 18.8059 3.53809C18.8164 3.54374 18.8328 3.53733 18.8398 3.5524" fill="#E4BD01"/>
<path fill-rule="evenodd" clip-rule="evenodd" d="M19.9376 4.9003L19.9505 4.90181C19.9716 4.91273 19.9653 4.92969 19.9591 4.94739L19.8485 6.78631C19.8466 6.82247 19.8411 6.85788 19.8372 6.89442C19.8317 6.90421 19.8278 6.90346 19.8243 6.89253C19.7868 6.28759 19.7497 5.6804 19.713 5.0747C19.7114 5.05775 19.713 5.03967 19.713 5.02385C19.7145 4.98204 19.7157 4.94023 19.7177 4.89917C19.7508 4.87951 19.7889 4.86919 19.8278 4.86939C19.8667 4.86959 19.9047 4.8803 19.9376 4.9003Z" fill="#E4BD01"/>
<path fill-rule="evenodd" clip-rule="evenodd" d="M22.9396 3.94003C22.9048 3.93174 22.8708 3.92308 22.8357 3.91592C22.8994 3.905 22.9611 3.92195 23.024 3.94003H22.9396Z" fill="#6BAE75"/>
<path fill-rule="evenodd" clip-rule="evenodd" d="M16.8516 3.91595C16.8258 3.92423 16.8012 3.93177 16.777 3.94005H16.7016C16.6907 3.93666 16.6895 3.93214 16.6993 3.92762C16.7489 3.9167 16.8004 3.91256 16.8516 3.91595Z" fill="#B1B632"/>
<path fill-rule="evenodd" clip-rule="evenodd" d="M18.7657 3.78416C18.7907 3.77889 18.811 3.81091 18.8391 3.79396C18.8665 3.82258 18.8719 3.8497 18.8286 3.87004C18.8426 3.80224 18.7911 3.81166 18.7512 3.80902C18.7563 3.80111 18.761 3.7917 18.7657 3.78416" fill="#3CA8A4"/>
<path fill-rule="evenodd" clip-rule="evenodd" d="M21.9648 1.89265L21.948 1.87759C21.9646 1.8508 21.9903 1.83033 22.0207 1.81958C22.0124 1.84992 21.9924 1.87607 21.9648 1.89265Z" fill="#A8B63B"/>
<path fill-rule="evenodd" clip-rule="evenodd" d="M21.3309 6.45702C21.3364 6.45175 21.3403 6.4461 21.3458 6.4397C21.37 6.47021 21.3895 6.50147 21.3813 6.54253C21.3646 6.51398 21.3478 6.48548 21.3309 6.45702" fill="#B9B82B"/>
<path fill-rule="evenodd" clip-rule="evenodd" d="M22.7617 3.18494C22.7561 3.17963 22.7503 3.1746 22.7441 3.16988C22.7577 3.16157 22.7731 3.15672 22.7891 3.1558C22.8051 3.15488 22.8211 3.15791 22.8356 3.1646C22.8113 3.17138 22.7859 3.17741 22.7617 3.18494Z" fill="#BAB829"/>
<path fill-rule="evenodd" clip-rule="evenodd" d="M17.2305 2.47143C17.2248 2.47635 17.2189 2.48112 17.2129 2.48575C17.1805 2.46858 17.1483 2.45087 17.1165 2.43264C17.1696 2.4251 17.1989 2.45034 17.2305 2.47143Z" fill="#BCB828"/>
<path fill-rule="evenodd" clip-rule="evenodd" d="M17.1992 5.38342C17.2043 5.3887 17.2094 5.39284 17.2141 5.39698C17.2003 5.40916 17.184 5.41851 17.1664 5.42447C17.1487 5.43042 17.13 5.43286 17.1113 5.43164C17.1414 5.41544 17.1707 5.40037 17.1992 5.38342Z" fill="#ADB636"/>
<path fill-rule="evenodd" clip-rule="evenodd" d="M20.6069 6.76256C20.6118 6.75675 20.6169 6.75109 20.6222 6.74561C20.6405 6.77084 20.6413 6.79871 20.6253 6.83073L20.6069 6.76256" fill="#B6B82D"/>
<path fill-rule="evenodd" clip-rule="evenodd" d="M17.6837 1.84699L17.6606 1.85076C17.6374 1.83521 17.6181 1.81488 17.604 1.79124C17.6095 1.78446 17.6142 1.78371 17.6216 1.79049C17.6415 1.81008 17.6614 1.82854 17.6837 1.84699Z" fill="#ABB639"/>
<path fill-rule="evenodd" clip-rule="evenodd" d="M16.8204 4.70056C16.8196 4.7047 16.8184 4.70885 16.8184 4.71299C16.7993 4.73258 16.7778 4.73258 16.7469 4.71902C16.7751 4.71224 16.7981 4.70546 16.8204 4.70056Z" fill="#6DAE74"/>
<path fill-rule="evenodd" clip-rule="evenodd" d="M21.359 1.39713C21.3539 1.39299 21.3496 1.38809 21.3453 1.38395C21.3504 1.36888 21.3547 1.35193 21.377 1.34741C21.3867 1.37039 21.3727 1.38395 21.359 1.39713" fill="#AAB639"/>
<path fill-rule="evenodd" clip-rule="evenodd" d="M22.7734 4.70059C22.7789 4.69532 22.784 4.69155 22.7891 4.68628C22.8094 4.69155 22.8293 4.69607 22.8484 4.70135C22.852 4.71491 22.85 4.72093 22.8344 4.71491C22.8125 4.71378 22.791 4.71566 22.7734 4.70059Z" fill="#A9B63A"/>
<path fill-rule="evenodd" clip-rule="evenodd" d="M22.0977 6.1164C22.0657 6.10209 22.0473 6.09343 22.0438 6.06932C22.0735 6.06668 22.0805 6.0874 22.0977 6.1164Z" fill="#55AB8A"/>
<path fill-rule="evenodd" clip-rule="evenodd" d="M19.0365 6.76074C19.0408 6.76677 19.0458 6.77167 19.0505 6.77694L19.0345 6.83457C19.0294 6.8406 19.0251 6.84173 19.0201 6.8357C19.0201 6.80971 19.0185 6.78372 19.0365 6.76074" fill="#ACB637"/>
<path fill-rule="evenodd" clip-rule="evenodd" d="M20.6216 1.12372C20.6173 1.11468 20.6134 1.10527 20.6079 1.0951C20.6134 1.08003 20.6173 1.06421 20.6208 1.0499C20.6286 1.04387 20.6345 1.04462 20.6407 1.0499C20.6368 1.07589 20.6407 1.10188 20.6216 1.12372" fill="#A8B63B"/>
<path fill-rule="evenodd" clip-rule="evenodd" d="M18.3098 1.37158C18.3055 1.37685 18.3016 1.38175 18.2969 1.38589C18.2883 1.37861 18.2815 1.36969 18.2767 1.3597C18.2719 1.34972 18.2694 1.33888 18.2692 1.32788C18.2953 1.33541 18.3016 1.35463 18.3098 1.37158Z" fill="#A0B543"/>
<path fill-rule="evenodd" clip-rule="evenodd" d="M20.9062 3.80944C20.8887 3.81132 20.8656 3.82112 20.8574 3.80153C20.8539 3.79061 20.8766 3.7827 20.8914 3.78458L20.9062 3.80944" fill="#44A99B"/>
<path fill-rule="evenodd" clip-rule="evenodd" d="M16.6993 3.92772C16.7008 3.9317 16.7016 3.9359 16.7016 3.94015H16.6282C16.6547 3.92169 16.6762 3.92433 16.6993 3.92772Z" fill="#6FAF71"/>
<path fill-rule="evenodd" clip-rule="evenodd" d="M16.8515 3.17055C16.8308 3.16528 16.8117 3.16076 16.793 3.15549C16.7875 3.1536 16.7848 3.15021 16.7855 3.1472C16.7867 3.14559 16.7876 3.14381 16.7883 3.14193C16.8121 3.14193 16.8344 3.13778 16.8515 3.15473C16.8629 3.15963 16.8629 3.16566 16.8515 3.17055" fill="#9DB445"/>
<path fill-rule="evenodd" clip-rule="evenodd" d="M22.8594 3.15214C22.8688 3.12916 22.8871 3.12765 22.9109 3.12991C22.898 3.15063 22.8824 3.15553 22.8594 3.15214Z" fill="#5BAC85"/>
<path fill-rule="evenodd" clip-rule="evenodd" d="M19.8359 0.961007H19.824C19.8183 0.935318 19.82 0.908559 19.829 0.883789C19.8398 0.908108 19.8422 0.935215 19.8359 0.961007Z" fill="#A1B541"/>
<path fill-rule="evenodd" clip-rule="evenodd" d="M22.4727 2.46765L22.459 2.45785C22.4663 2.45015 22.4752 2.44395 22.485 2.43961C22.4949 2.43528 22.5056 2.4329 22.5164 2.43262C22.5094 2.45522 22.4902 2.46011 22.4727 2.46765Z" fill="#DCBC09"/>
<path fill-rule="evenodd" clip-rule="evenodd" d="M17.6797 5.99121C17.6852 5.99531 17.6901 6.00013 17.6942 6.00552C17.6844 6.02172 17.6719 6.03679 17.6438 6.0383C17.6458 6.01343 17.6622 6.00251 17.6797 5.99121Z" fill="#A3B540"/>
<path fill-rule="evenodd" clip-rule="evenodd" d="M21.9767 6.01009C21.9775 6.00293 21.9794 5.99577 21.9794 5.98975C21.9978 6.00293 22.0212 6.01385 22.02 6.04474C21.997 6.04022 21.9861 6.02666 21.9767 6.01009" fill="#C2B922"/>
<path fill-rule="evenodd" clip-rule="evenodd" d="M18.2989 6.47205C18.3032 6.47732 18.3075 6.48109 18.3118 6.48523C18.3063 6.50143 18.3024 6.51724 18.2813 6.52176C18.2715 6.49879 18.2848 6.48523 18.2989 6.47205Z" fill="#A2B541"/>
<path fill-rule="evenodd" clip-rule="evenodd" d="M19.0356 1.03583L19.0215 1.03508C19.004 1.02189 19.0059 1.00419 19.0094 0.980835C19.0178 0.987497 19.0245 0.995907 19.0291 1.00543C19.0336 1.01496 19.0358 1.02535 19.0356 1.03583" fill="#79B068"/>
<path fill-rule="evenodd" clip-rule="evenodd" d="M17.6211 1.78994L17.6035 1.7907C17.5852 1.7858 17.5785 1.77224 17.5699 1.75378C17.5809 1.75531 17.5913 1.75941 17.6002 1.76571C17.6091 1.77202 17.6163 1.78034 17.6211 1.78994" fill="#68AE79"/>
<path fill-rule="evenodd" clip-rule="evenodd" d="M22.8359 4.71485L22.85 4.70129C22.8656 4.70581 22.882 4.71033 22.9125 4.71975C22.8762 4.73256 22.8562 4.72804 22.8359 4.71485" fill="#66AD7A"/>
<path fill-rule="evenodd" clip-rule="evenodd" d="M16.7911 3.14188C16.7911 3.14715 16.7919 3.15092 16.793 3.15544C16.777 3.14941 16.7606 3.14451 16.7411 3.13773C16.7634 3.12267 16.779 3.12681 16.7911 3.14188Z" fill="#53AB8C"/>
<path fill-rule="evenodd" clip-rule="evenodd" d="M18.8399 3.55233C18.8286 3.54706 18.8172 3.54329 18.8059 3.53802L18.8387 3.52295C18.8516 3.52709 18.8672 3.52973 18.8661 3.54706C18.8657 3.54894 18.8493 3.55045 18.8399 3.55233Z" fill="#27A5B7"/>
<path fill-rule="evenodd" clip-rule="evenodd" d="M20.6407 1.04944H20.6207C20.6262 1.03098 20.6324 1.01215 20.6375 0.993315C20.6407 0.985405 20.6457 0.985405 20.6508 0.990301C20.6516 1.01177 20.6551 1.03249 20.6407 1.04944" fill="#96B34C"/>
<path fill-rule="evenodd" clip-rule="evenodd" d="M16.8516 3.17048V3.15466C16.8734 3.15692 16.8957 3.15466 16.9152 3.16973C16.9089 3.17388 16.9028 3.17828 16.8969 3.18291L16.8516 3.17048" fill="#D2BB13"/>
<path fill-rule="evenodd" clip-rule="evenodd" d="M20.6507 0.991033C20.6464 0.991786 20.6421 0.99254 20.6375 0.994046L20.655 0.944702C20.6718 0.966926 20.6664 0.980109 20.6507 0.991033" fill="#4CAA93"/>
<path fill-rule="evenodd" clip-rule="evenodd" d="M19.9611 4.94743L19.9525 4.90186C19.9763 4.91353 19.9857 4.93576 19.9865 4.96062L19.9611 4.94743" fill="#3CA8A4"/>
<path fill-rule="evenodd" clip-rule="evenodd" d="M20.8164 4.33454C20.8016 4.3304 20.7887 4.32475 20.775 4.31948C20.7942 4.29461 20.8141 4.3078 20.8332 4.31872C20.8281 4.32447 20.8225 4.32976 20.8164 4.33454" fill="#44A99B"/>
<path fill-rule="evenodd" clip-rule="evenodd" d="M18.8242 4.31865C18.8418 4.30773 18.8633 4.29643 18.8789 4.31187C18.8859 4.31865 18.8668 4.32845 18.8551 4.33184C18.8449 4.32769 18.8348 4.32393 18.8242 4.31865Z" fill="#5AAC87"/>
<path fill-rule="evenodd" clip-rule="evenodd" d="M19.1719 4.74271C19.182 4.73179 19.1918 4.72049 19.2023 4.71069C19.2133 4.73103 19.2023 4.74535 19.1863 4.75778C19.182 4.75213 19.177 4.74798 19.1719 4.74271" fill="#5BAC85"/>
<path fill-rule="evenodd" clip-rule="evenodd" d="M18.8282 3.87034C18.8454 3.84661 18.8454 3.821 18.8388 3.79425C18.8403 3.72118 18.8739 3.65375 18.8891 3.58256C18.9341 3.48952 18.9872 3.39988 19.0509 3.31663L19.2181 3.1588C19.2989 3.11436 19.3798 3.07066 19.4591 3.02659C19.7106 2.93883 19.9622 2.94787 20.2145 3.02659C20.2841 3.06539 20.3536 3.10381 20.4227 3.14298C20.5056 3.21078 20.5829 3.28273 20.6513 3.36258C20.6907 3.43076 20.7305 3.49668 20.7708 3.56486C20.8204 3.7208 20.8466 3.88051 20.8337 4.04474C20.8154 4.13844 20.7901 4.23072 20.7579 4.32084C20.7161 4.38827 20.6759 4.45569 20.6356 4.52274L20.4696 4.68396C20.3895 4.73217 20.3095 4.78076 20.2282 4.82822C20.1329 4.85271 20.0345 4.87644 19.938 4.89979C19.8645 4.89979 19.7911 4.89866 19.7181 4.89866C19.621 4.87991 19.5252 4.85538 19.4313 4.82521C19.3559 4.78179 19.2806 4.7381 19.2056 4.69413C19.1446 4.63235 19.0833 4.57171 19.0223 4.51031C18.9338 4.38713 18.8715 4.24821 18.8391 4.10162C18.8313 4.02553 18.8208 3.94794 18.8282 3.87034" fill="#00A0DD"/>
<path fill-rule="evenodd" clip-rule="evenodd" d="M19.8337 3.05554C19.953 3.05549 20.0712 3.07816 20.1814 3.12224C20.2916 3.16633 20.3917 3.23096 20.4759 3.31243C20.5601 3.3939 20.6269 3.49061 20.6722 3.59701C20.7176 3.70341 20.7408 3.8174 20.7404 3.93244C20.7394 4.1651 20.6431 4.38794 20.4723 4.55231C20.3016 4.71668 20.0703 4.80922 19.829 4.80972C19.588 4.80793 19.3574 4.7146 19.1872 4.54996C19.0171 4.38531 18.9211 4.16262 18.92 3.93018C18.9212 3.69744 19.018 3.47464 19.1893 3.31067C19.3606 3.1467 19.5924 3.05494 19.8337 3.05554Z" fill="#E4BD01"/>
<path d="M0 7.74109H25V12.2612H0V7.74109Z" fill="#F9CB38"/>
</svg>
