<svg width="83" height="82" viewBox="0 0 83 82" fill="none" xmlns="http://www.w3.org/2000/svg">
<g clip-path="url(#clip0)">
<path d="M74.8872 0.291626H8.72733C4.29297 0.291626 0.698212 3.8378 0.698212 8.21224V73.4781C0.698212 77.8525 4.29297 81.3987 8.72733 81.3987H74.8872C79.3216 81.3987 82.9163 77.8525 82.9163 73.4781V8.21224C82.9163 3.8378 79.3216 0.291626 74.8872 0.291626Z" fill="url(#paint0_linear)"/>
<path d="M68.374 10.8356H51.0054C48.8769 10.8356 47.1515 12.5377 47.1515 14.6375V42.518C47.1515 44.6177 48.8769 46.3199 51.0054 46.3199H68.374C70.5025 46.3199 72.228 44.6177 72.228 42.518V14.6375C72.228 12.5377 70.5025 10.8356 68.374 10.8356Z" fill="white"/>
<path d="M32.6091 10.8356H15.2405C13.112 10.8356 11.3866 12.5377 11.3866 14.6375V62.7948C11.3866 64.8945 13.112 66.5967 15.2405 66.5967H32.6091C34.7376 66.5967 36.4631 64.8945 36.4631 62.7948V14.6375C36.4631 12.5377 34.7376 10.8356 32.6091 10.8356Z" fill="white"/>
</g>
<defs>
<linearGradient id="paint0_linear" x1="41.8073" y1="0.291626" x2="41.8073" y2="81.3987" gradientUnits="userSpaceOnUse">
<stop stop-color="#0091E6"/>
<stop offset="1" stop-color="#0079BF"/>
</linearGradient>
<clipPath id="clip0">
<rect width="82.2181" height="81.1071" fill="white" transform="translate(0.698212 0.291626)"/>
</clipPath>
</defs>
</svg>
