<svg width="99" height="99" viewBox="0 0 99 99" fill="none" xmlns="http://www.w3.org/2000/svg">
<path d="M88.9062 24.0889C86.0076 25.3393 82.8532 26.2392 79.604 26.5897C82.9774 24.5856 85.5035 21.4195 86.7085 17.6854C83.5431 19.5685 80.0753 20.8889 76.4591 21.5882C74.9477 19.9724 73.1197 18.6852 71.0891 17.8067C69.0585 16.9283 66.8687 16.4775 64.6562 16.4824C55.7045 16.4824 48.5053 23.7385 48.5053 32.6427C48.5053 33.8931 48.6569 35.1435 48.9032 36.3466C35.4994 35.6456 23.5449 29.2421 15.5973 19.4379C14.1492 21.9113 13.3903 24.7276 13.3997 27.5938C13.3997 33.2016 16.2509 38.1464 20.5989 41.0545C18.0366 40.9536 15.5343 40.2493 13.2955 38.9989V39.1978C13.2955 47.0507 18.8464 53.5584 26.2446 55.055C24.8555 55.4159 23.4265 55.6005 21.9914 55.6045C20.9399 55.6045 19.9453 55.5003 18.9412 55.3582C20.9873 61.7617 26.9456 66.4128 34.0406 66.5643C28.4896 70.9123 21.5367 73.4699 13.987 73.4699C12.6324 73.4699 11.382 73.4225 10.0842 73.271C17.2456 77.8652 25.7425 80.5175 34.8931 80.5175C64.5994 80.5175 80.8544 55.9076 80.8544 34.5468C80.8544 33.8458 80.8544 33.1448 80.8071 32.4438C83.952 30.142 86.7085 27.2907 88.9062 24.0889Z" fill="black"/>
</svg>
