<svg width="83" height="82" viewBox="0 0 83 82" fill="none" xmlns="http://www.w3.org/2000/svg">
<path d="M78.5579 56.2186C78.8894 53.6573 78.8894 51.0416 78.5579 48.4803L81.8472 45.7736C82.2297 45.4648 82.3954 44.829 82.2679 44.2296C81.4137 40.3059 79.9476 36.7455 78.0352 33.8028C77.742 33.3486 77.2703 33.2396 76.8878 33.5484L73.5985 36.2551C72.2088 34.5657 70.6152 33.2578 68.894 32.3859V26.9726C68.894 26.355 68.5881 25.8101 68.1673 25.6829C65.3243 24.7746 62.4302 24.811 59.7274 25.6829C59.3067 25.8101 59.0007 26.355 59.0007 26.9726V32.3859C57.2795 33.2578 55.6859 34.5657 54.2962 36.2551L51.0069 33.5484C50.6372 33.2396 50.1527 33.3486 49.8595 33.8028C47.9471 36.7455 46.481 40.3059 45.6268 44.2296C45.4993 44.829 45.6778 45.4648 46.0475 45.7736L49.3368 48.4803C49.0053 51.0416 49.0053 53.6573 49.3368 56.2186L46.0475 58.9253C45.665 59.2341 45.4993 59.8699 45.6268 60.4693C46.481 64.393 47.9471 67.9352 49.8595 70.8962C50.1527 71.3503 50.6245 71.4593 51.0069 71.1505L54.2962 68.4438C55.6859 70.1332 57.2795 71.4411 59.0007 72.313V77.7263C59.0007 78.3439 59.3067 78.8888 59.7274 79.016C62.5704 79.9243 65.4645 79.8879 68.1673 79.016C68.5881 78.8888 68.894 78.3439 68.894 77.7263V72.313C70.6152 71.4411 72.2088 70.1332 73.5985 68.4438L76.8878 71.1505C77.2575 71.4593 77.742 71.3503 78.0352 70.8962C79.9476 67.9534 81.4137 64.393 82.2679 60.4693C82.3954 59.8699 82.2169 59.2341 81.8472 58.9253L78.5579 56.2186ZM63.9601 61.1596C60.5433 61.1596 57.7767 57.1996 57.7767 52.3495C57.7767 47.4993 60.5561 43.5393 63.9601 43.5393C67.3641 43.5393 70.1435 47.4993 70.1435 52.3495C70.1435 57.1996 67.3769 61.1596 63.9601 61.1596ZM12.9633 34.9108C17.4638 34.9108 21.1228 29.6974 21.1228 23.2851C21.1228 16.8728 17.4638 11.6593 12.9633 11.6593C8.46288 11.6593 4.80386 16.8728 4.80386 23.2851C4.80386 29.6974 8.46288 34.9108 12.9633 34.9108ZM41.5215 40.7237C41.7638 40.7237 41.9933 40.6329 42.2355 40.6147C43.2937 36.6729 44.8491 32.9672 46.8634 29.8609C47.8069 28.4077 49.1455 27.5721 50.548 27.5721C51.4277 27.5721 52.2946 27.8991 53.0468 28.5348L54.054 29.3704C54.156 29.2796 54.258 29.207 54.36 29.1161C55.2524 26.464 55.7879 23.5212 55.7879 20.3968C55.7879 9.15254 49.4005 0.0517578 41.5088 0.0517578C33.617 0.0517578 27.2424 9.13437 27.2424 20.3786C27.2424 31.6229 33.6298 40.7237 41.5215 40.7237ZM54.9337 76.0551C54.6404 75.8371 54.3472 75.5828 54.0667 75.3466C53.0213 76.2186 52.1161 77.1268 50.5607 77.1268C49.171 77.1268 47.8324 76.2912 46.8762 74.838C44.5431 71.2413 42.7582 66.8635 41.751 62.195C40.3869 55.928 44.9256 53.1669 45.0403 53.0579C45.0276 52.5856 45.0276 52.1133 45.0403 51.641L44.0331 50.8054C43.5487 50.4058 43.1407 49.8971 42.7837 49.334C42.363 49.3704 41.955 49.443 41.5343 49.443C38.398 49.443 35.4657 48.3531 32.8011 46.5366H31.7429C23.6217 46.5366 17.0431 55.9098 17.0431 67.4629V72.6945C17.0431 77.5083 19.7842 81.4138 23.1627 81.4138H55.7241C55.2524 80.3239 54.9337 79.0887 54.9337 77.7263V76.0551ZM22.793 44.1024C21.3141 42.0134 19.2869 40.7237 17.0431 40.7237H8.8836C4.38314 40.7237 0.724121 45.9371 0.724121 52.3495V58.1623C0.724121 61.3776 2.54726 63.9752 4.80386 63.9752H13.2056C14.0088 55.3649 17.655 48.117 22.793 44.1024V44.1024Z" fill="black"/>
</svg>
