<svg width="61" height="60" viewBox="0 0 61 60" fill="none" xmlns="http://www.w3.org/2000/svg">
<path d="M58.1944 41.42C58.4423 39.5311 58.4423 37.6021 58.1944 35.7133L60.6537 33.7173C60.9397 33.4896 61.0636 33.0208 60.9683 32.5787C60.3296 29.6852 59.2334 27.0596 57.8036 24.8895C57.5844 24.5546 57.2317 24.4742 56.9457 24.7019L54.4864 26.6979C53.4474 25.4521 52.2558 24.4876 50.969 23.8446V19.8526C50.969 19.3972 50.7402 18.9953 50.4256 18.9015C48.2999 18.2317 46.1361 18.2585 44.1153 18.9015C43.8007 18.9953 43.5719 19.3972 43.5719 19.8526V23.8446C42.2851 24.4876 41.0936 25.4521 40.0545 26.6979L37.5952 24.7019C37.3188 24.4742 36.9566 24.5546 36.7373 24.8895C35.3075 27.0596 34.2113 29.6852 33.5726 32.5787C33.4773 33.0208 33.6107 33.4896 33.8872 33.7173L36.3465 35.7133C36.0987 37.6021 36.0987 39.5311 36.3465 41.42L33.8872 43.4159C33.6012 43.6437 33.4773 44.1125 33.5726 44.5546C34.2113 47.4481 35.3075 50.0603 36.7373 52.2438C36.9566 52.5787 37.3092 52.6591 37.5952 52.4313L40.0545 50.4354C41.0936 51.6812 42.2851 52.6457 43.5719 53.2887V57.2806C43.5719 57.7361 43.8007 58.138 44.1153 58.2317C46.241 58.9015 48.4048 58.8747 50.4256 58.2317C50.7402 58.138 50.969 57.7361 50.969 57.2806V53.2887C52.2558 52.6457 53.4474 51.6812 54.4864 50.4354L56.9457 52.4313C57.2221 52.6591 57.5844 52.5787 57.8036 52.2438C59.2334 50.0737 60.3296 47.4481 60.9683 44.5546C61.0636 44.1125 60.9302 43.6437 60.6537 43.4159L58.1944 41.42ZM47.28 45.0636C44.7253 45.0636 42.6568 42.1433 42.6568 38.5666C42.6568 34.99 44.7349 32.0697 47.28 32.0697C49.8251 32.0697 51.9031 34.99 51.9031 38.5666C51.9031 42.1433 49.8346 45.0636 47.28 45.0636ZM9.15097 25.7066C12.5159 25.7066 15.2516 21.862 15.2516 17.1333C15.2516 12.4046 12.5159 8.55995 9.15097 8.55995C5.78608 8.55995 3.05032 12.4046 3.05032 17.1333C3.05032 21.862 5.78608 25.7066 9.15097 25.7066ZM30.5032 29.9933C30.6843 29.9933 30.8559 29.9263 31.037 29.9129C31.8282 27.006 32.9911 24.2733 34.4972 21.9826C35.2026 20.9109 36.2035 20.2947 37.2521 20.2947C37.9098 20.2947 38.558 20.5358 39.1204 21.0047L39.8734 21.6209C39.9497 21.5539 40.0259 21.5003 40.1022 21.4334C40.7695 19.4776 41.1698 17.3074 41.1698 15.0034C41.1698 6.71132 36.3942 0 30.4937 0C24.5932 0 19.8271 6.69792 19.8271 14.99C19.8271 23.282 24.6028 29.9933 30.5032 29.9933ZM40.5312 56.0482C40.3119 55.8875 40.0927 55.6999 39.883 55.5258C39.1013 56.1688 38.4245 56.8386 37.2616 56.8386C36.2226 56.8386 35.2217 56.2224 34.5068 55.1507C32.7624 52.4983 31.4278 49.2699 30.6748 45.8272C29.6548 41.2056 33.0483 39.1695 33.1341 39.0891C33.1246 38.7408 33.1246 38.3925 33.1341 38.0442L32.3811 37.428C32.0188 37.1333 31.7138 36.7582 31.4469 36.3429C31.1323 36.3697 30.8273 36.4233 30.5128 36.4233C28.1678 36.4233 25.9754 35.6196 23.9832 34.28H23.192C17.1199 34.28 12.2013 41.1922 12.2013 49.712V53.57C12.2013 57.1199 14.2507 60 16.7768 60H41.1222C40.7695 59.1962 40.5312 58.2853 40.5312 57.2806V56.0482ZM16.5003 32.4849C15.3946 30.9444 13.879 29.9933 12.2013 29.9933H6.10064C2.73576 29.9933 0 33.8379 0 38.5666V42.8533C0 45.2244 1.36311 47.14 3.05032 47.14H9.33208C9.93261 40.7904 12.6588 35.4454 16.5003 32.4849V32.4849Z" fill="black"/>
</svg>
